<?xml version="1.0" encoding="UTF-8" standalone="no"?>
<!DOCTYPE svg PUBLIC "-//W3C//DTD SVG 1.1//EN" "http://www.w3.org/Graphics/SVG/1.1/DTD/svg11.dtd">
<svg width="100%" height="100%" viewBox="0 0 42 25" version="1.1" xmlns="http://www.w3.org/2000/svg" xmlns:xlink="http://www.w3.org/1999/xlink" xml:space="preserve" xmlns:serif="http://www.serif.com/" style="fill-rule:evenodd;clip-rule:evenodd;stroke-linejoin:round;stroke-miterlimit:1.41421;">
    <g transform="matrix(2.90527,0,0,2.90527,-26.5614,-10.8518)">
        <path d="M14.779,9.3C14.779,9.908 14.661,10.444 14.425,10.908C14.189,11.372 13.847,11.732 13.399,11.988C12.951,12.244 12.419,12.372 11.803,12.372C11.563,12.372 11.311,12.32 11.047,12.216C10.783,12.112 10.539,11.98 10.315,11.82L10.003,12.228L9.211,12.228L9.211,3.888L10.759,3.756L10.759,6.516C11.111,6.34 11.475,6.252 11.851,6.252C12.755,6.252 13.469,6.526 13.993,7.074C14.517,7.622 14.779,8.364 14.779,9.3ZM13.171,9.3C13.171,8.788 13.049,8.374 12.805,8.058C12.561,7.742 12.223,7.584 11.791,7.584C11.455,7.584 11.111,7.7 10.759,7.932L10.759,10.704C11.087,10.928 11.431,11.04 11.791,11.04C12.215,11.04 12.551,10.878 12.799,10.554C13.047,10.23 13.171,9.812 13.171,9.3Z" style="fill:rgb(60,60,60);fill-rule:nonzero;"/>
        <path d="M23.563,6.408L21.703,12.228L20.395,12.228L19.303,8.664L18.259,12.228L16.939,12.228L15.199,6.648L16.735,6.192L17.635,9.792L18.475,6.408L20.191,6.408L21.091,9.792L21.919,6.408L23.563,6.408Z" style="fill:rgb(60,60,60);fill-rule:nonzero;"/>
    </g>
</svg>
