<?xml version="1.0" encoding="UTF-8" standalone="no"?>
<!DOCTYPE svg PUBLIC "-//W3C//DTD SVG 1.1//EN" "http://www.w3.org/Graphics/SVG/1.1/DTD/svg11.dtd">
<svg width="100%" height="100%" viewBox="0 0 360 340" version="1.1" xmlns="http://www.w3.org/2000/svg" xmlns:xlink="http://www.w3.org/1999/xlink" xml:space="preserve" xmlns:serif="http://www.serif.com/" style="fill-rule:evenodd;clip-rule:evenodd;stroke-linecap:round;stroke-linejoin:round;stroke-miterlimit:1.5;">
    <g transform="matrix(0.708812,0,0,0.708812,-1791.27,-1660.37)">
        <g transform="matrix(1,0,0,1,1792.52,81.625)">
            <path d="M737.622,2599.87L738.587,2613.8C738.587,2613.8 738.786,2615.43 740.79,2616.39C742.793,2617.36 958.621,2702.04 961.305,2703.09C963.99,2704.13 969.901,2704.92 972.93,2702.17C975.958,2699.42 1038.72,2649.66 1040.62,2648.17C1042.52,2646.67 1042.33,2645.76 1042.2,2644.61C1042.07,2643.45 1041.15,2631.92 1041.15,2631.92L1032.45,2637.11L969.384,2686.86L895.917,2660.34L743.562,2601.22L737.622,2599.87Z" style="fill:rgb(230,230,230);stroke:rgb(102,97,96);stroke-width:1.41px;"/>
            <path d="M818.937,2542.88C822.669,2544.46 1030.39,2625.91 1035.23,2627.65C1039.42,2629.15 1043.71,2631.17 1039.13,2635.31C1034.54,2639.45 976.943,2684.68 972.377,2688.43C967.811,2692.18 964.365,2691.32 959.184,2689.43C954.004,2687.55 746.157,2605.98 741.434,2603.9C736.711,2601.82 736.977,2598.9 739.335,2597.3C741.694,2595.7 801.181,2547.97 804.564,2545.36C807.947,2542.75 811.462,2539.71 818.937,2542.88Z" style="fill:rgb(230,230,230);stroke:rgb(102,97,96);stroke-width:1.41px;"/>
            <path d="M814.378,2545.85C817.637,2547.13 1021.83,2627.32 1025.01,2628.59C1028.18,2629.87 1030.52,2632.01 1027.41,2634.61C1024.3,2637.22 976.896,2674.9 973.783,2677.29C970.671,2679.67 966.29,2678.9 962.017,2677.47C957.744,2676.04 758.195,2597.34 753.67,2595.52C749.254,2593.74 748.15,2591.35 750.799,2589.33C753.872,2586.98 800.114,2550.12 803.248,2547.75C806.383,2545.38 808.558,2543.56 814.378,2545.85Z" style="fill:rgb(230,230,230);stroke:rgb(102,97,96);stroke-width:0.99px;"/>
            <path d="M738.364,2606.84C738.364,2606.84 738.201,2607.76 740.209,2608.66C742.217,2609.56 958.512,2694.68 961.669,2695.79C964.825,2696.9 968.564,2696.67 971.408,2694.8C974.252,2692.93 1041.5,2639.1 1041.5,2639.1" style="fill:none;stroke:rgb(102,97,96);stroke-width:1.69px;"/>
            <g transform="matrix(1,0,0,1,-125.061,-97.6576)">
                <path d="M938.04,2652.55C938.04,2652.55 937.587,2652.83 937.415,2653.31C937.243,2653.79 935.065,2658.56 935.065,2658.56C935.004,2659.17 935.282,2659.53 936.041,2659.76C938.932,2660.65 946.32,2663.18 946.938,2663.39C947.719,2663.66 947.918,2663.43 948.999,2662.64C949.757,2662.08 952.98,2659.21 954.687,2657.69C955.192,2657.24 956.111,2656.45 956.111,2656.45C956.111,2656.45 953.488,2651.22 953.335,2650.96C953.183,2650.69 952.827,2650.41 951.997,2650.23L950.135,2652.19C947.714,2653.81 946.96,2654.06 945.706,2654.96C945.773,2655.15 940.049,2654.83 938.04,2652.55Z" style="fill:rgb(191,191,191);"/>
            </g>
            <g transform="matrix(1,0,0,1,-134.493,-90.0676)">
                <path d="M938.04,2652.55C938.04,2652.55 937.587,2652.83 937.415,2653.31C937.243,2653.79 935.065,2658.56 935.065,2658.56C935.004,2659.17 935.282,2659.53 936.041,2659.76C938.932,2660.65 946.32,2663.18 946.938,2663.39C947.719,2663.66 952.948,2667.81 954.03,2667.01C954.787,2666.46 959.951,2661.65 960.97,2659.04C961.216,2658.41 958.666,2655.09 958.819,2653.89C958.819,2653.89 953.13,2652.99 952.978,2652.72C952.826,2652.46 952.071,2652.28 951.241,2652.09L950.135,2652.19C947.714,2653.81 946.96,2654.06 945.706,2654.96C945.773,2655.15 940.049,2654.83 938.04,2652.55Z" style="fill:rgb(191,191,191);"/>
            </g>
            <g transform="matrix(1,0,0,1,-111.648,-92.4593)">
                <path d="M938.04,2652.55C938.04,2652.55 937.587,2652.83 937.415,2653.31C937.243,2653.79 935.065,2658.56 935.065,2658.56C935.004,2659.17 935.282,2659.53 936.041,2659.76C938.932,2660.65 946.32,2663.18 946.938,2663.39C947.719,2663.66 947.918,2663.43 948.999,2662.64C949.757,2662.08 952.98,2659.21 954.687,2657.69C955.192,2657.24 956.111,2656.45 956.111,2656.45C956.111,2656.45 953.488,2651.22 953.335,2650.96C953.183,2650.69 952.827,2650.41 951.997,2650.23L950.135,2652.19C947.714,2653.81 946.96,2654.06 945.706,2654.96C945.773,2655.15 940.049,2654.83 938.04,2652.55Z" style="fill:rgb(191,191,191);"/>
            </g>
            <g transform="matrix(1,0,0,1,-98.2763,-87.2365)">
                <path d="M938.04,2652.55C938.04,2652.55 937.587,2652.83 937.415,2653.31C937.243,2653.79 935.065,2658.56 935.065,2658.56C935.004,2659.17 935.282,2659.53 936.041,2659.76C938.932,2660.65 946.32,2663.18 946.938,2663.39C947.719,2663.66 947.918,2663.43 948.999,2662.64C949.757,2662.08 952.98,2659.21 954.687,2657.69C955.192,2657.24 956.111,2656.45 956.111,2656.45C956.111,2656.45 953.488,2651.22 953.335,2650.96C953.183,2650.69 952.827,2650.41 951.997,2650.23L950.135,2652.19C947.714,2653.81 946.96,2654.06 945.706,2654.96C945.773,2655.15 940.049,2654.83 938.04,2652.55Z" style="fill:rgb(191,191,191);"/>
            </g>
            <g transform="matrix(1,0,0,1,-84.8288,-81.9725)">
                <path d="M938.04,2652.55C938.04,2652.55 937.587,2652.83 937.415,2653.31C937.243,2653.79 935.065,2658.56 935.065,2658.56C935.004,2659.17 935.282,2659.53 936.041,2659.76C938.932,2660.65 946.32,2663.18 946.938,2663.39C947.719,2663.66 947.918,2663.43 948.999,2662.64C949.757,2662.08 952.98,2659.21 954.687,2657.69C955.192,2657.24 956.111,2656.45 956.111,2656.45C956.111,2656.45 953.488,2651.22 953.335,2650.96C953.183,2650.69 952.827,2650.41 951.997,2650.23L950.135,2652.19C947.714,2653.81 946.96,2654.06 945.706,2654.96C945.773,2655.15 940.049,2654.83 938.04,2652.55Z" style="fill:rgb(191,191,191);"/>
            </g>
            <g transform="matrix(1,0,0,1,-71.7051,-76.733)">
                <path d="M938.04,2652.55C938.04,2652.55 937.587,2652.83 937.415,2653.31C937.243,2653.79 935.065,2658.56 935.065,2658.56C935.004,2659.17 935.282,2659.53 936.041,2659.76C938.932,2660.65 946.32,2663.18 946.938,2663.39C947.719,2663.66 947.918,2663.43 948.999,2662.64C949.757,2662.08 952.98,2659.21 954.687,2657.69C955.192,2657.24 956.111,2656.45 956.111,2656.45C956.111,2656.45 953.488,2651.22 953.335,2650.96C953.183,2650.69 952.827,2650.41 951.997,2650.23L950.135,2652.19C947.714,2653.81 946.96,2654.06 945.706,2654.96C945.773,2655.15 940.049,2654.83 938.04,2652.55Z" style="fill:rgb(191,191,191);"/>
            </g>
            <g transform="matrix(1,0,0,1,-58.2185,-71.4453)">
                <path d="M938.04,2652.55C938.04,2652.55 937.587,2652.83 937.415,2653.31C937.243,2653.79 935.065,2658.56 935.065,2658.56C935.004,2659.17 935.282,2659.53 936.041,2659.76C938.932,2660.65 946.32,2663.18 946.938,2663.39C947.719,2663.66 947.918,2663.43 948.999,2662.64C949.757,2662.08 952.98,2659.21 954.687,2657.69C955.192,2657.24 956.111,2656.45 956.111,2656.45C956.111,2656.45 953.488,2651.22 953.335,2650.96C953.183,2650.69 952.827,2650.41 951.997,2650.23L950.135,2652.19C947.714,2653.81 946.96,2654.06 945.706,2654.96C945.773,2655.15 940.049,2654.83 938.04,2652.55Z" style="fill:rgb(191,191,191);"/>
            </g>
            <g transform="matrix(1,0,0,1,-44.856,-66.1046)">
                <path d="M938.04,2652.55C938.04,2652.55 937.587,2652.83 937.415,2653.31C937.243,2653.79 935.065,2658.56 935.065,2658.56C935.004,2659.17 935.282,2659.53 936.041,2659.76C938.932,2660.65 946.32,2663.18 946.938,2663.39C947.719,2663.66 947.918,2663.43 948.999,2662.64C949.757,2662.08 952.98,2659.21 954.687,2657.69C955.192,2657.24 956.111,2656.45 956.111,2656.45C956.111,2656.45 953.488,2651.22 953.335,2650.96C953.183,2650.69 952.827,2650.41 951.997,2650.23L950.135,2652.19C947.714,2653.81 946.96,2654.06 945.706,2654.96C945.773,2655.15 940.049,2654.83 938.04,2652.55Z" style="fill:rgb(191,191,191);"/>
            </g>
            <g transform="matrix(1,0,0,1,-31.625,-61.0545)">
                <path d="M938.04,2652.55C938.04,2652.55 937.587,2652.83 937.415,2653.31C937.243,2653.79 935.065,2658.56 935.065,2658.56C935.004,2659.17 935.282,2659.53 936.041,2659.76C938.932,2660.65 946.32,2663.18 946.938,2663.39C947.719,2663.66 947.918,2663.43 948.999,2662.64C949.757,2662.08 952.98,2659.21 954.687,2657.69C955.192,2657.24 956.111,2656.45 956.111,2656.45C956.111,2656.45 953.488,2651.22 953.335,2650.96C953.183,2650.69 952.827,2650.41 951.997,2650.23L950.135,2652.19C947.714,2653.81 946.96,2654.06 945.706,2654.96C945.773,2655.15 940.049,2654.83 938.04,2652.55Z" style="fill:rgb(191,191,191);"/>
            </g>
            <g transform="matrix(1,0,0,1,-18.3649,-55.7401)">
                <path d="M938.04,2652.55C938.04,2652.55 937.587,2652.83 937.415,2653.31C937.243,2653.79 935.065,2658.56 935.065,2658.56C935.004,2659.17 935.282,2659.53 936.041,2659.76C938.932,2660.65 946.32,2663.18 946.938,2663.39C947.719,2663.66 947.918,2663.43 948.999,2662.64C949.757,2662.08 952.98,2659.21 954.687,2657.69C955.192,2657.24 956.111,2656.45 956.111,2656.45C956.111,2656.45 953.488,2651.22 953.335,2650.96C953.183,2650.69 952.827,2650.41 951.997,2650.23L950.135,2652.19C947.714,2653.81 946.96,2654.06 945.706,2654.96C945.773,2655.15 940.049,2654.83 938.04,2652.55Z" style="fill:rgb(191,191,191);"/>
            </g>
            <g transform="matrix(1,0,0,1,-4.84511,-50.4329)">
                <path d="M938.04,2652.55C938.04,2652.55 937.587,2652.83 937.415,2653.31C937.243,2653.79 935.065,2658.56 935.065,2658.56C935.004,2659.17 935.282,2659.53 936.041,2659.76C938.932,2660.65 946.32,2663.18 946.938,2663.39C947.719,2663.66 947.918,2663.43 948.999,2662.64C949.757,2662.08 952.98,2659.21 954.687,2657.69C955.192,2657.24 956.111,2656.45 956.111,2656.45C956.111,2656.45 953.488,2651.22 953.335,2650.96C953.183,2650.69 952.827,2650.41 951.997,2650.23L950.135,2652.19C947.714,2653.81 946.96,2654.06 945.706,2654.96C945.773,2655.15 940.049,2654.83 938.04,2652.55Z" style="fill:rgb(191,191,191);"/>
            </g>
            <g transform="matrix(1,0,0,1,8.38409,-45.3133)">
                <path d="M938.04,2652.55C938.04,2652.55 937.587,2652.83 937.415,2653.31C937.243,2653.79 935.065,2658.56 935.065,2658.56C935.004,2659.17 935.282,2659.53 936.041,2659.76C938.932,2660.65 946.32,2663.18 946.938,2663.39C947.719,2663.66 947.918,2663.43 948.999,2662.64C949.757,2662.08 952.98,2659.21 954.687,2657.69C955.192,2657.24 956.111,2656.45 956.111,2656.45C956.111,2656.45 953.488,2651.22 953.335,2650.96C953.183,2650.69 952.827,2650.41 951.997,2650.23L950.135,2652.19C947.714,2653.81 946.96,2654.06 945.706,2654.96C945.773,2655.15 940.049,2654.83 938.04,2652.55Z" style="fill:rgb(191,191,191);"/>
            </g>
            <g transform="matrix(1,0,0,1,21.6781,-40.0233)">
                <path d="M938.04,2652.55C938.04,2652.55 937.587,2652.83 937.415,2653.31C937.243,2653.79 935.065,2658.56 935.065,2658.56C935.004,2659.17 935.282,2659.53 936.041,2659.76C938.932,2660.65 946.32,2663.18 946.938,2663.39C947.719,2663.66 947.918,2663.43 948.999,2662.64C949.757,2662.08 952.98,2659.21 954.687,2657.69C955.192,2657.24 956.111,2656.45 956.111,2656.45C956.111,2656.45 953.488,2651.22 953.335,2650.96C953.183,2650.69 952.827,2650.41 951.997,2650.23L950.135,2652.19C947.714,2653.81 946.96,2654.06 945.706,2654.96C945.773,2655.15 940.049,2654.83 938.04,2652.55Z" style="fill:rgb(191,191,191);"/>
            </g>
            <g transform="matrix(1,0,0,1,35.0229,-34.8296)">
                <path d="M938.04,2652.55C938.04,2652.55 937.587,2652.83 937.415,2653.31C937.243,2653.79 935.065,2658.56 935.065,2658.56C935.004,2659.17 935.282,2659.53 936.041,2659.76C938.932,2660.65 946.32,2663.18 946.938,2663.39C947.719,2663.66 947.918,2663.43 948.999,2662.64C949.757,2662.08 952.98,2659.21 954.687,2657.69C955.192,2657.24 956.111,2656.45 956.111,2656.45C956.111,2656.45 953.488,2651.22 953.335,2650.96C953.183,2650.69 952.827,2650.41 951.997,2650.23L950.135,2652.19C947.714,2653.81 946.96,2654.06 945.706,2654.96C945.773,2655.15 940.049,2654.83 938.04,2652.55Z" style="fill:rgb(191,191,191);"/>
            </g>
            <g transform="matrix(1,0,0,1,35.0229,-34.8296)">
                <path d="M945.511,2647.52C946.453,2647.8 951.358,2650.01 952.026,2650.22C952.693,2650.42 952.361,2650.83 951.955,2651.15C951.55,2651.46 946.674,2655.09 946.176,2655.52C945.679,2655.95 944.741,2655.59 944.206,2655.39C943.672,2655.2 939.023,2653.85 938.347,2653.55C937.671,2653.25 937.693,2652.69 938.068,2652.46C938.444,2652.23 942.981,2648.45 943.473,2648.1C943.965,2647.74 944.615,2647.25 945.511,2647.52Z" style="fill:rgb(132,132,132);fill-opacity:0.18;"/>
            </g>
            <g transform="matrix(1,0,0,1,-115.499,-81.3328)">
                <path d="M938.04,2652.55C938.04,2652.55 937.587,2652.83 937.415,2653.31C937.243,2653.79 935.065,2658.56 935.065,2658.56C935.004,2659.17 935.282,2659.53 936.041,2659.76C938.932,2660.65 946.32,2663.18 946.938,2663.39C947.719,2663.66 947.918,2663.43 948.999,2662.64C949.757,2662.08 952.98,2659.21 954.687,2657.69C955.192,2657.24 956.111,2656.45 956.111,2656.45C956.111,2656.45 953.488,2651.22 953.335,2650.96C953.183,2650.69 952.827,2650.41 951.997,2650.23L950.135,2652.19C947.714,2653.81 946.96,2654.06 945.706,2654.96C945.773,2655.15 940.049,2654.83 938.04,2652.55Z" style="fill:rgb(191,191,191);"/>
            </g>
            <g transform="matrix(1,0,0,1,-101.877,-75.9684)">
                <path d="M938.04,2652.55C938.04,2652.55 937.587,2652.83 937.415,2653.31C937.243,2653.79 935.065,2658.56 935.065,2658.56C935.004,2659.17 935.282,2659.53 936.041,2659.76C938.932,2660.65 946.32,2663.18 946.938,2663.39C947.719,2663.66 947.918,2663.43 948.999,2662.64C949.757,2662.08 952.98,2659.21 954.687,2657.69C955.192,2657.24 956.111,2656.45 956.111,2656.45C956.111,2656.45 953.488,2651.22 953.335,2650.96C953.183,2650.69 952.827,2650.41 951.997,2650.23L950.135,2652.19C947.714,2653.81 946.96,2654.06 945.706,2654.96C945.773,2655.15 940.049,2654.83 938.04,2652.55Z" style="fill:rgb(191,191,191);"/>
            </g>
            <g transform="matrix(1,0,0,1,-88.2707,-70.7108)">
                <path d="M938.04,2652.55C938.04,2652.55 937.587,2652.83 937.415,2653.31C937.243,2653.79 935.065,2658.56 935.065,2658.56C935.004,2659.17 935.282,2659.53 936.041,2659.76C938.932,2660.65 946.32,2663.18 946.938,2663.39C947.719,2663.66 947.918,2663.43 948.999,2662.64C949.757,2662.08 952.98,2659.21 954.687,2657.69C955.192,2657.24 956.111,2656.45 956.111,2656.45C956.111,2656.45 953.488,2651.22 953.335,2650.96C953.183,2650.69 952.827,2650.41 951.997,2650.23L950.135,2652.19C947.714,2653.81 946.96,2654.06 945.706,2654.96C945.773,2655.15 940.049,2654.83 938.04,2652.55Z" style="fill:rgb(191,191,191);"/>
            </g>
            <g transform="matrix(1,0,0,1,-75.1171,-65.3804)">
                <path d="M938.04,2652.55C938.04,2652.55 937.587,2652.83 937.415,2653.31C937.243,2653.79 935.065,2658.56 935.065,2658.56C935.004,2659.17 935.282,2659.53 936.041,2659.76C938.932,2660.65 946.32,2663.18 946.938,2663.39C947.719,2663.66 947.918,2663.43 948.999,2662.64C949.757,2662.08 952.98,2659.21 954.687,2657.69C955.192,2657.24 956.111,2656.45 956.111,2656.45C956.111,2656.45 953.488,2651.22 953.335,2650.96C953.183,2650.69 952.827,2650.41 951.997,2650.23L950.135,2652.19C947.714,2653.81 946.96,2654.06 945.706,2654.96C945.773,2655.15 940.049,2654.83 938.04,2652.55Z" style="fill:rgb(191,191,191);"/>
            </g>
            <g transform="matrix(1,0,0,1,-61.6471,-60.1732)">
                <path d="M938.04,2652.55C938.04,2652.55 937.587,2652.83 937.415,2653.31C937.243,2653.79 935.065,2658.56 935.065,2658.56C935.004,2659.17 935.282,2659.53 936.041,2659.76C938.932,2660.65 946.32,2663.18 946.938,2663.39C947.719,2663.66 947.918,2663.43 948.999,2662.64C949.757,2662.08 952.98,2659.21 954.687,2657.69C955.192,2657.24 956.111,2656.45 956.111,2656.45C956.111,2656.45 953.488,2651.22 953.335,2650.96C953.183,2650.69 952.827,2650.41 951.997,2650.23L950.135,2652.19C947.714,2653.81 946.96,2654.06 945.706,2654.96C945.773,2655.15 940.049,2654.83 938.04,2652.55Z" style="fill:rgb(191,191,191);"/>
            </g>
            <g transform="matrix(1,0,0,1,-48.6587,-55.0052)">
                <path d="M938.04,2652.55C938.04,2652.55 937.587,2652.83 937.415,2653.31C937.243,2653.79 935.065,2658.56 935.065,2658.56C935.004,2659.17 935.282,2659.53 936.041,2659.76C938.932,2660.65 946.32,2663.18 946.938,2663.39C947.719,2663.66 947.918,2663.43 948.999,2662.64C949.757,2662.08 952.98,2659.21 954.687,2657.69C955.192,2657.24 956.111,2656.45 956.111,2656.45C956.111,2656.45 953.488,2651.22 953.335,2650.96C953.183,2650.69 952.827,2650.41 951.997,2650.23L950.135,2652.19C947.714,2653.81 946.96,2654.06 945.706,2654.96C945.773,2655.15 940.049,2654.83 938.04,2652.55Z" style="fill:rgb(191,191,191);"/>
            </g>
            <g transform="matrix(1,0,0,1,-35.2375,-49.7068)">
                <path d="M938.04,2652.55C938.04,2652.55 937.587,2652.83 937.415,2653.31C937.243,2653.79 935.065,2658.56 935.065,2658.56C935.004,2659.17 935.282,2659.53 936.041,2659.76C938.932,2660.65 946.32,2663.18 946.938,2663.39C947.719,2663.66 947.918,2663.43 948.999,2662.64C949.757,2662.08 952.98,2659.21 954.687,2657.69C955.192,2657.24 956.111,2656.45 956.111,2656.45C956.111,2656.45 953.488,2651.22 953.335,2650.96C953.183,2650.69 952.827,2650.41 951.997,2650.23L950.135,2652.19C947.714,2653.81 946.96,2654.06 945.706,2654.96C945.773,2655.15 940.049,2654.83 938.04,2652.55Z" style="fill:rgb(191,191,191);"/>
            </g>
            <g transform="matrix(1,0,0,1,-21.9985,-44.5579)">
                <path d="M938.04,2652.55C938.04,2652.55 937.587,2652.83 937.415,2653.31C937.243,2653.79 935.065,2658.56 935.065,2658.56C935.004,2659.17 935.282,2659.53 936.041,2659.76C938.932,2660.65 946.32,2663.18 946.938,2663.39C947.719,2663.66 947.918,2663.43 948.999,2662.64C949.757,2662.08 952.98,2659.21 954.687,2657.69C955.192,2657.24 955.93,2656.58 955.93,2656.58C955.93,2656.58 953.307,2651.36 953.154,2651.09C953.002,2650.83 952.646,2650.55 951.816,2650.36L950.135,2652.19C947.714,2653.81 946.96,2654.06 945.706,2654.96C945.773,2655.15 940.049,2654.83 938.04,2652.55Z" style="fill:rgb(191,191,191);"/>
            </g>
            <g transform="matrix(1,0,0,1,-121.655,-70.2502)">
                <path d="M938.04,2652.55C938.04,2652.55 937.268,2653.03 937.096,2653.51C936.924,2653.99 933.978,2658.06 933.978,2658.06C933.917,2658.66 935.282,2659.53 936.041,2659.76C938.932,2660.65 946.32,2663.18 946.938,2663.39C947.719,2663.66 947.918,2663.43 948.999,2662.64C949.757,2662.08 952.98,2659.21 954.687,2657.69C955.192,2657.24 956.111,2656.45 956.111,2656.45C956.111,2656.45 953.488,2651.22 953.335,2650.96C953.183,2650.69 952.827,2650.41 951.997,2650.23L950.135,2652.19C947.714,2653.81 946.96,2654.06 945.706,2654.96C945.773,2655.15 940.049,2654.83 938.04,2652.55Z" style="fill:rgb(191,191,191);"/>
            </g>
            <g transform="matrix(1,0,0,1,-108.357,-64.9469)">
                <path d="M938.04,2652.55C938.04,2652.55 937.587,2652.83 937.415,2653.31C937.243,2653.79 935.065,2658.56 935.065,2658.56C935.004,2659.17 935.282,2659.53 936.041,2659.76C938.932,2660.65 946.32,2663.18 946.938,2663.39C947.719,2663.66 947.918,2663.43 948.999,2662.64C949.757,2662.08 952.98,2659.21 954.687,2657.69C955.192,2657.24 956.111,2656.45 956.111,2656.45C956.111,2656.45 953.488,2651.22 953.335,2650.96C953.183,2650.69 952.827,2650.41 951.997,2650.23L950.135,2652.19C947.714,2653.81 946.96,2654.06 945.706,2654.96C945.773,2655.15 940.049,2654.83 938.04,2652.55Z" style="fill:rgb(191,191,191);"/>
            </g>
            <g transform="matrix(1,0,0,1,-95.0258,-59.7594)">
                <path d="M938.04,2652.55C938.04,2652.55 937.587,2652.83 937.415,2653.31C937.243,2653.79 935.065,2658.56 935.065,2658.56C935.004,2659.17 935.282,2659.53 936.041,2659.76C938.932,2660.65 946.32,2663.18 946.938,2663.39C947.719,2663.66 947.918,2663.43 948.999,2662.64C949.757,2662.08 952.98,2659.21 954.687,2657.69C955.192,2657.24 956.111,2656.45 956.111,2656.45C956.111,2656.45 953.488,2651.22 953.335,2650.96C953.183,2650.69 952.827,2650.41 951.997,2650.23L950.135,2652.19C947.714,2653.81 946.96,2654.06 945.706,2654.96C945.773,2655.15 940.049,2654.83 938.04,2652.55Z" style="fill:rgb(191,191,191);"/>
            </g>
            <g transform="matrix(1,0,0,1,-81.7952,-54.4425)">
                <path d="M938.04,2652.55C938.04,2652.55 937.587,2652.83 937.415,2653.31C937.243,2653.79 935.065,2658.56 935.065,2658.56C935.004,2659.17 935.282,2659.53 936.041,2659.76C938.932,2660.65 946.32,2663.18 946.938,2663.39C947.719,2663.66 947.918,2663.43 948.999,2662.64C949.757,2662.08 952.98,2659.21 954.687,2657.69C955.192,2657.24 956.111,2656.45 956.111,2656.45C956.111,2656.45 953.488,2651.22 953.335,2650.96C953.183,2650.69 952.827,2650.41 951.997,2650.23L950.135,2652.19C947.714,2653.81 946.96,2654.06 945.706,2654.96C945.773,2655.15 940.049,2654.83 938.04,2652.55Z" style="fill:rgb(191,191,191);"/>
            </g>
            <g transform="matrix(1,0,0,1,-68.4104,-49.2669)">
                <path d="M938.04,2652.55C938.04,2652.55 937.587,2652.83 937.415,2653.31C937.243,2653.79 935.065,2658.56 935.065,2658.56C935.004,2659.17 935.282,2659.53 936.041,2659.76C938.932,2660.65 946.32,2663.18 946.938,2663.39C947.719,2663.66 947.918,2663.43 948.999,2662.64C949.757,2662.08 952.98,2659.21 954.687,2657.69C955.192,2657.24 956.111,2656.45 956.111,2656.45C956.111,2656.45 953.488,2651.22 953.335,2650.96C953.183,2650.69 952.827,2650.41 951.997,2650.23L950.135,2652.19C947.714,2653.81 946.96,2654.06 945.706,2654.96C945.773,2655.15 940.049,2654.83 938.04,2652.55Z" style="fill:rgb(191,191,191);"/>
            </g>
            <g transform="matrix(1,0,0,1,-55.3306,-44.0514)">
                <path d="M938.04,2652.55C938.04,2652.55 937.587,2652.83 937.415,2653.31C937.243,2653.79 935.065,2658.56 935.065,2658.56C935.004,2659.17 935.282,2659.53 936.041,2659.76C938.932,2660.65 946.32,2663.18 946.938,2663.39C947.719,2663.66 947.918,2663.43 948.999,2662.64C949.757,2662.08 952.98,2659.21 954.687,2657.69C955.192,2657.24 956.111,2656.45 956.111,2656.45C956.111,2656.45 953.488,2651.22 953.335,2650.96C953.183,2650.69 952.827,2650.41 951.997,2650.23L950.135,2652.19C947.714,2653.81 946.96,2654.06 945.706,2654.96C945.773,2655.15 940.049,2654.83 938.04,2652.55Z" style="fill:rgb(191,191,191);"/>
            </g>
            <g transform="matrix(1,0,0,1,-41.9621,-38.9425)">
                <path d="M938.04,2652.55C938.04,2652.55 937.587,2652.83 937.415,2653.31C937.243,2653.79 935.065,2658.56 935.065,2658.56C935.004,2659.17 935.282,2659.53 936.041,2659.76C938.932,2660.65 946.32,2663.18 946.938,2663.39C947.719,2663.66 947.918,2663.43 948.999,2662.64C949.757,2662.08 952.98,2659.21 954.687,2657.69C955.192,2657.24 956.111,2656.45 956.111,2656.45C956.111,2656.45 953.488,2651.22 953.335,2650.96C953.183,2650.69 952.827,2650.41 951.997,2650.23L950.135,2652.19C947.714,2653.81 946.96,2654.06 945.706,2654.96C945.773,2655.15 940.049,2654.83 938.04,2652.55Z" style="fill:rgb(191,191,191);"/>
            </g>
            <g transform="matrix(1,0,0,1,-28.7926,-33.5927)">
                <path d="M938.424,2652.21C938.424,2652.21 937.587,2652.83 937.415,2653.31C937.243,2653.79 935.065,2658.56 935.065,2658.56C935.004,2659.17 935.282,2659.53 936.041,2659.76C938.932,2660.65 946.32,2663.18 946.938,2663.39C947.719,2663.66 947.918,2663.43 948.999,2662.64C949.757,2662.08 952.98,2659.21 954.687,2657.69C955.192,2657.24 956.111,2656.45 956.111,2656.45C956.111,2656.45 953.488,2651.22 953.335,2650.96C953.183,2650.69 952.827,2650.41 951.997,2650.23L950.135,2652.19C947.714,2653.81 947.409,2653.4 946.155,2654.31C946.222,2654.49 940.434,2654.49 938.424,2652.21Z" style="fill:rgb(191,191,191);"/>
            </g>
            <g transform="matrix(1,0,0,1,-15.3209,-28.3586)">
                <path d="M938.462,2652.14C938.462,2652.14 937.761,2652.34 937.394,2653.22C937.197,2653.69 935.065,2658.56 935.065,2658.56C935.004,2659.17 935.282,2659.53 936.041,2659.76C938.932,2660.65 946.32,2663.18 946.938,2663.39C947.719,2663.66 947.918,2663.43 948.999,2662.64C949.757,2662.08 952.98,2659.21 954.687,2657.69C955.192,2657.24 956.111,2656.45 956.111,2656.45C956.111,2656.45 953.488,2651.22 953.335,2650.96C953.183,2650.69 952.827,2650.41 951.997,2650.23L950.135,2652.19C947.714,2653.81 946.96,2654.06 945.706,2654.96C945.773,2655.15 940.472,2654.42 938.462,2652.14Z" style="fill:rgb(191,191,191);"/>
            </g>
            <g transform="matrix(1,0,0,1,-2.00452,-23.1826)">
                <path d="M938.04,2652.55C938.04,2652.55 937.587,2652.83 937.415,2653.31C937.243,2653.79 935.065,2658.56 935.065,2658.56C935.004,2659.17 935.282,2659.53 936.041,2659.76C938.932,2660.65 946.32,2663.18 946.938,2663.39C947.719,2663.66 947.918,2663.43 948.999,2662.64C949.757,2662.08 952.98,2659.21 954.687,2657.69C955.192,2657.24 956.111,2656.45 956.111,2656.45C956.111,2656.45 953.488,2651.22 953.335,2650.96C953.183,2650.69 952.827,2650.41 951.997,2650.23L950.135,2652.19C947.714,2653.81 946.96,2654.06 945.706,2654.96C945.773,2655.15 940.049,2654.83 938.04,2652.55Z" style="fill:rgb(191,191,191);"/>
            </g>
            <g transform="matrix(1,0,0,1,11.1345,-17.8444)">
                <path d="M938.04,2652.55C938.04,2652.55 937.587,2652.83 937.415,2653.31C937.243,2653.79 935.065,2658.56 935.065,2658.56C935.004,2659.17 935.282,2659.53 936.041,2659.76C938.932,2660.65 946.32,2663.18 946.938,2663.39C947.719,2663.66 947.918,2663.43 948.999,2662.64C949.757,2662.08 952.98,2659.21 954.687,2657.69C955.192,2657.24 956.111,2656.45 956.111,2656.45C956.111,2656.45 953.488,2651.22 953.335,2650.96C953.183,2650.69 952.827,2650.41 951.997,2650.23L950.135,2652.19C947.714,2653.81 948.992,2651.97 947.738,2652.87C947.804,2653.06 940.049,2654.83 938.04,2652.55Z" style="fill:rgb(191,191,191);fill-opacity:0.18;"/>
            </g>
            <g transform="matrix(1,0,0,1,11.1345,-17.8444)">
                <path d="M938.04,2652.55C938.04,2652.55 937.587,2652.83 937.415,2653.31C937.243,2653.79 935.065,2658.56 935.065,2658.56C935.004,2659.17 935.282,2659.53 936.041,2659.76C938.932,2660.65 946.32,2663.18 946.938,2663.39C947.719,2663.66 947.918,2663.43 948.999,2662.64C949.757,2662.08 952.98,2659.21 954.687,2657.69C955.192,2657.24 956.111,2656.45 956.111,2656.45C956.111,2656.45 953.488,2651.22 953.335,2650.96C953.183,2650.69 952.827,2650.41 951.997,2650.23L950.135,2652.19C947.714,2653.81 948.992,2651.97 947.738,2652.87C947.804,2653.06 940.049,2654.83 938.04,2652.55Z" style="fill:rgb(191,191,191);"/>
            </g>
            <g transform="matrix(1,0,0,1,-125.743,-61.6901)">
                <path d="M938.651,2652.27C938.651,2652.27 937.755,2652.89 937.583,2653.37C937.411,2653.85 935.713,2658.69 935.713,2658.69C935.652,2659.3 935.282,2659.53 936.041,2659.76C938.932,2660.65 946.32,2663.18 946.938,2663.39C947.719,2663.66 947.918,2663.43 948.999,2662.64C949.757,2662.08 952.98,2659.21 954.687,2657.69C955.192,2657.24 956.111,2656.45 956.111,2656.45C956.111,2656.45 953.488,2651.22 953.335,2650.96C953.183,2650.69 952.827,2650.41 951.997,2650.23L950.135,2652.19C947.714,2653.81 948.737,2653.01 947.482,2653.91C947.549,2654.1 940.661,2654.55 938.651,2652.27Z" style="fill:rgb(191,191,191);"/>
            </g>
            <g transform="matrix(1,0,0,1,-111.837,-56.7007)">
                <path d="M938.04,2652.55C938.04,2652.55 937.587,2652.83 937.415,2653.31C937.243,2653.79 935.065,2658.56 935.065,2658.56C935.004,2659.17 935.282,2659.53 936.041,2659.76C938.932,2660.65 946.32,2663.18 946.938,2663.39C947.719,2663.66 947.918,2663.43 948.999,2662.64C949.757,2662.08 952.98,2659.21 954.687,2657.69C955.192,2657.24 955.461,2656.83 955.461,2656.83C955.461,2656.83 953.217,2652.19 952.644,2651.13C952.498,2650.86 952.004,2650.66 951.173,2650.47L950.135,2652.19C947.714,2653.81 946.96,2654.06 945.706,2654.96C945.773,2655.15 940.049,2654.83 938.04,2652.55Z" style="fill:rgb(191,191,191);"/>
            </g>
            <g transform="matrix(1,0,0,1,-98.5791,-51.5936)">
                <path d="M938.04,2652.55C938.04,2652.55 937.587,2652.83 937.415,2653.31C937.243,2653.79 935.065,2658.56 935.065,2658.56C935.004,2659.17 935.282,2659.53 936.041,2659.76C938.932,2660.65 946.32,2663.18 946.938,2663.39C947.719,2663.66 947.918,2663.43 948.999,2662.64C949.757,2662.08 952.98,2659.21 954.687,2657.69C955.192,2657.24 955.461,2656.83 955.461,2656.83C955.461,2656.83 953.217,2652.19 952.644,2651.13C952.498,2650.86 952.004,2650.66 951.173,2650.47L950.135,2652.19C947.714,2653.81 946.96,2654.06 945.706,2654.96C945.773,2655.15 940.049,2654.83 938.04,2652.55Z" style="fill:rgb(191,191,191);"/>
            </g>
            <g transform="matrix(1,0,0,1,-85.2546,-46.3796)">
                <path d="M938.04,2652.55C938.04,2652.55 937.587,2652.83 937.415,2653.31C937.243,2653.79 935.065,2658.56 935.065,2658.56C935.004,2659.17 935.282,2659.53 936.041,2659.76C938.932,2660.65 946.32,2663.18 946.938,2663.39C947.719,2663.66 947.918,2663.43 948.999,2662.64C949.757,2662.08 952.98,2659.21 954.687,2657.69C955.192,2657.24 955.461,2656.83 955.461,2656.83C955.461,2656.83 953.217,2652.19 952.644,2651.13C952.498,2650.86 952.004,2650.66 951.173,2650.47L950.135,2652.19C947.714,2653.81 946.96,2654.06 945.706,2654.96C945.773,2655.15 940.049,2654.83 938.04,2652.55Z" style="fill:rgb(191,191,191);"/>
            </g>
            <g transform="matrix(1,0,0,1,-72.0182,-41.139)">
                <path d="M938.04,2652.55C938.04,2652.55 937.587,2652.83 937.415,2653.31C937.243,2653.79 935.065,2658.56 935.065,2658.56C935.004,2659.17 935.282,2659.53 936.041,2659.76C938.932,2660.65 946.32,2663.18 946.938,2663.39C947.719,2663.66 947.918,2663.43 948.999,2662.64C949.757,2662.08 952.98,2659.21 954.687,2657.69C955.192,2657.24 955.461,2656.83 955.461,2656.83C955.461,2656.83 953.217,2652.19 952.644,2651.13C952.498,2650.86 952.004,2650.66 951.173,2650.47L950.135,2652.19C947.714,2653.81 946.96,2654.06 945.706,2654.96C945.773,2655.15 940.049,2654.83 938.04,2652.55Z" style="fill:rgb(191,191,191);"/>
            </g>
            <g transform="matrix(1,0,0,1,-58.6611,-35.9009)">
                <path d="M938.04,2652.55C938.04,2652.55 937.587,2652.83 937.415,2653.31C937.243,2653.79 935.065,2658.56 935.065,2658.56C935.004,2659.17 935.282,2659.53 936.041,2659.76C938.932,2660.65 946.32,2663.18 946.938,2663.39C947.719,2663.66 947.918,2663.43 948.999,2662.64C949.757,2662.08 952.98,2659.21 954.687,2657.69C955.192,2657.24 955.461,2656.83 955.461,2656.83C955.461,2656.83 953.217,2652.19 952.644,2651.13C952.498,2650.86 952.004,2650.66 951.173,2650.47L950.135,2652.19C947.714,2653.81 946.96,2654.06 945.706,2654.96C945.773,2655.15 940.049,2654.83 938.04,2652.55Z" style="fill:rgb(191,191,191);"/>
            </g>
            <g transform="matrix(1,0,0,1,-45.3344,-30.6328)">
                <path d="M938.04,2652.55C938.04,2652.55 937.587,2652.83 937.415,2653.31C937.243,2653.79 935.065,2658.56 935.065,2658.56C935.004,2659.17 935.282,2659.53 936.041,2659.76C938.932,2660.65 946.32,2663.18 946.938,2663.39C947.719,2663.66 947.918,2663.43 948.999,2662.64C949.757,2662.08 952.98,2659.21 954.687,2657.69C955.192,2657.24 955.461,2656.83 955.461,2656.83C955.461,2656.83 953.217,2652.19 952.644,2651.13C952.498,2650.86 952.004,2650.66 951.173,2650.47L950.135,2652.19C947.714,2653.81 946.96,2654.06 945.706,2654.96C945.773,2655.15 940.049,2654.83 938.04,2652.55Z" style="fill:rgb(191,191,191);"/>
            </g>
            <g transform="matrix(1,0,0,1,-32.1179,-25.4748)">
                <path d="M938.04,2652.55C938.04,2652.55 937.587,2652.83 937.415,2653.31C937.243,2653.79 935.065,2658.56 935.065,2658.56C935.004,2659.17 935.282,2659.53 936.041,2659.76C938.932,2660.65 946.32,2663.18 946.938,2663.39C947.719,2663.66 947.918,2663.43 948.999,2662.64C949.757,2662.08 952.98,2659.21 954.687,2657.69C955.192,2657.24 955.461,2656.83 955.461,2656.83C955.461,2656.83 953.217,2652.19 952.644,2651.13C952.498,2650.86 952.004,2650.66 951.173,2650.47L950.135,2652.19C947.714,2653.81 946.96,2654.06 945.706,2654.96C945.773,2655.15 940.049,2654.83 938.04,2652.55Z" style="fill:rgb(191,191,191);"/>
            </g>
            <g transform="matrix(1,0,0,1,-18.7317,-20.187)">
                <path d="M938.04,2652.55C938.04,2652.55 937.587,2652.83 937.415,2653.31C937.243,2653.79 935.065,2658.56 935.065,2658.56C935.004,2659.17 935.282,2659.53 936.041,2659.76C938.932,2660.65 946.32,2663.18 946.938,2663.39C947.719,2663.66 947.918,2663.43 948.999,2662.64C949.757,2662.08 952.98,2659.21 954.687,2657.69C955.192,2657.24 955.461,2656.83 955.461,2656.83C955.461,2656.83 953.217,2652.19 952.644,2651.13C952.498,2650.86 952.004,2650.66 951.173,2650.47L950.135,2652.19C947.714,2653.81 946.96,2654.06 945.706,2654.96C945.773,2655.15 940.049,2654.83 938.04,2652.55Z" style="fill:rgb(191,191,191);"/>
            </g>
            <g transform="matrix(1,0,0,1,-5.53276,-14.9396)">
                <path d="M938.04,2652.55C938.04,2652.55 937.587,2652.83 937.415,2653.31C937.243,2653.79 935.065,2658.56 935.065,2658.56C935.004,2659.17 935.282,2659.53 936.041,2659.76C938.932,2660.65 946.32,2663.18 946.938,2663.39C947.719,2663.66 947.918,2663.43 948.999,2662.64C949.757,2662.08 952.98,2659.21 954.687,2657.69C955.192,2657.24 955.461,2656.83 955.461,2656.83C955.461,2656.83 953.217,2652.19 952.644,2651.13C952.498,2650.86 952.004,2650.66 951.173,2650.47L950.135,2652.19C947.714,2653.81 946.96,2654.06 945.706,2654.96C945.773,2655.15 940.049,2654.83 938.04,2652.55Z" style="fill:rgb(191,191,191);"/>
            </g>
            <g transform="matrix(1,0,0,1,-8.66753,-39.3033)">
                <path d="M938.04,2652.55C938.04,2652.55 937.587,2652.83 937.415,2653.31C937.243,2653.79 935.065,2658.56 935.065,2658.56C935.004,2659.17 935.282,2659.53 936.041,2659.76C938.932,2660.65 946.32,2663.18 946.938,2663.39C947.719,2663.66 947.918,2663.43 948.999,2662.64C949.757,2662.08 952.98,2659.21 954.687,2657.69C955.192,2657.24 956.111,2656.45 956.111,2656.45C956.111,2656.45 953.488,2651.22 953.335,2650.96C953.183,2650.69 952.827,2650.41 951.997,2650.23L950.135,2652.19C947.714,2653.81 946.96,2654.06 945.706,2654.96C945.773,2655.15 940.049,2654.83 938.04,2652.55Z" style="fill:rgb(191,191,191);"/>
            </g>
            <g transform="matrix(1,0,0,1,4.54554,-34.0358)">
                <path d="M938.04,2652.55C938.04,2652.55 937.587,2652.83 937.415,2653.31C937.243,2653.79 935.065,2658.56 935.065,2658.56C935.004,2659.17 935.282,2659.53 936.041,2659.76C938.932,2660.65 946.32,2663.18 946.938,2663.39C947.719,2663.66 947.918,2663.43 948.999,2662.64C949.757,2662.08 952.98,2659.21 954.687,2657.69C955.192,2657.24 956.111,2656.45 956.111,2656.45C956.111,2656.45 953.488,2651.22 953.335,2650.96C953.183,2650.69 952.827,2650.41 951.997,2650.23L950.135,2652.19C947.714,2653.81 946.96,2654.06 945.706,2654.96C945.773,2655.15 940.049,2654.83 938.04,2652.55Z" style="fill:rgb(191,191,191);"/>
            </g>
            <g transform="matrix(1,0,0,1,18.1876,-28.649)">
                <path d="M938.04,2652.55C938.04,2652.55 937.587,2652.83 937.415,2653.31C937.243,2653.79 935.065,2658.56 935.065,2658.56C935.004,2659.17 935.282,2659.53 936.041,2659.76C938.932,2660.65 946.32,2663.18 946.938,2663.39C947.719,2663.66 947.918,2663.43 948.999,2662.64C949.757,2662.08 952.98,2659.21 954.687,2657.69C955.192,2657.24 956.111,2656.45 956.111,2656.45C956.111,2656.45 953.488,2651.22 953.335,2650.96C953.183,2650.69 952.827,2650.41 951.997,2650.23L950.135,2652.19C947.714,2653.81 946.96,2654.06 945.706,2654.96C945.773,2655.15 940.049,2654.83 938.04,2652.55Z" style="fill:rgb(191,191,191);"/>
            </g>
            <g transform="matrix(1,0,0,1,31.4474,-23.4219)">
                <path d="M938.04,2652.55C938.04,2652.55 937.587,2652.83 937.415,2653.31C937.243,2653.79 935.065,2658.56 935.065,2658.56C935.004,2659.17 935.282,2659.53 936.041,2659.76C938.932,2660.65 946.32,2663.18 946.938,2663.39C947.719,2663.66 947.918,2663.43 948.999,2662.64C949.757,2662.08 952.98,2659.21 954.687,2657.69C955.192,2657.24 956.111,2656.45 956.111,2656.45C956.111,2656.45 953.488,2651.22 953.335,2650.96C953.183,2650.69 952.827,2650.41 951.997,2650.23L950.135,2652.19C947.714,2653.81 946.96,2654.06 945.706,2654.96C945.773,2655.15 940.049,2654.83 938.04,2652.55Z" style="fill:rgb(191,191,191);"/>
            </g>
            <g transform="matrix(1,0,0,1,31.4474,-23.4219)">
                <path d="M945.511,2647.52C946.453,2647.8 951.358,2650.01 952.026,2650.22C952.693,2650.42 952.361,2650.83 951.955,2651.15C951.55,2651.46 946.674,2655.09 946.176,2655.52C945.679,2655.95 944.741,2655.59 944.206,2655.39C943.672,2655.2 939.023,2653.85 938.347,2653.55C937.671,2653.25 937.693,2652.69 938.068,2652.46C938.444,2652.23 942.981,2648.45 943.473,2648.1C943.965,2647.74 944.615,2647.25 945.511,2647.52Z" style="fill:rgb(132,132,132);fill-opacity:0.18;"/>
            </g>
            <g transform="matrix(1,0,0,1,44.8088,-18.4783)">
                <path d="M938.04,2652.55C938.04,2652.55 937.587,2652.83 937.415,2653.31C937.243,2653.79 935.065,2658.56 935.065,2658.56C935.004,2659.17 935.282,2659.53 936.041,2659.76C938.932,2660.65 946.32,2663.18 946.938,2663.39C947.719,2663.66 947.918,2663.43 948.999,2662.64C949.757,2662.08 952.98,2659.21 954.687,2657.69C955.192,2657.24 956.111,2656.45 956.111,2656.45C956.111,2656.45 953.488,2651.22 953.335,2650.96C953.183,2650.69 952.827,2650.41 951.997,2650.23L950.135,2652.19C947.714,2653.81 946.96,2654.06 945.706,2654.96C945.773,2655.15 940.049,2654.83 938.04,2652.55Z" style="fill:rgb(191,191,191);fill-opacity:0.18;"/>
            </g>
            <g transform="matrix(1,0,0,1,44.8088,-18.4783)">
                <path d="M945.511,2647.52C946.453,2647.8 951.358,2650.01 952.026,2650.22C952.693,2650.42 952.361,2650.83 951.955,2651.15C951.55,2651.46 946.674,2655.09 946.176,2655.52C945.679,2655.95 944.741,2655.59 944.206,2655.39C943.672,2655.2 939.023,2653.85 938.347,2653.55C937.671,2653.25 937.693,2652.69 938.068,2652.46C938.444,2652.23 942.981,2648.45 943.473,2648.1C943.965,2647.74 944.615,2647.25 945.511,2647.52Z" style="fill:rgb(132,132,132);fill-opacity:0.18;"/>
            </g>
            <path d="M793.551,2572.79C793.551,2572.79 792.861,2573.31 792.417,2574.05C791.974,2574.8 790.692,2576.8 790.692,2576.8L811.983,2585.18C811.983,2585.18 813.836,2585.75 813.941,2585.77C814.047,2585.8 816.183,2582.33 816.183,2582.33L820.471,2578.93C820.471,2578.93 818.743,2576.31 818.336,2575.8C817.928,2575.28 818.016,2575.17 816.655,2574.85C815.295,2574.53 810.752,2574.55 810.752,2574.55L796.732,2573.57L793.551,2572.79Z" style="fill:rgb(191,191,191);"/>
            <path d="M783.746,2580.8C783.746,2580.8 782.961,2581.07 782.642,2581.62C782.324,2582.16 779.587,2586.35 779.587,2586.35L796.999,2593.1L803.535,2595.19L810.055,2595.07L811.855,2591.62L814.393,2589.27L815.691,2588.09L813.855,2585.93C813.855,2585.93 802.5,2584.25 801.649,2583.99C800.798,2583.73 788.919,2580.53 787.642,2580.63C786.365,2580.73 783.746,2580.8 783.746,2580.8Z" style="fill:rgb(191,191,191);"/>
            <path d="M785.471,2592.63C785.471,2592.63 784.909,2592.64 784.684,2593.33C784.458,2594.02 782.815,2599.68 782.815,2599.68L795.322,2604.55C795.322,2604.55 796.298,2604.16 796.474,2603.93C796.649,2603.71 803.082,2595.43 803.082,2595.43L801.988,2592.4C801.988,2592.4 801.815,2591.76 800.972,2591.39C800.129,2591.02 795.459,2591.6 795.459,2591.6L788.96,2592.46L785.471,2592.63Z" style="fill:rgb(191,191,191);"/>
            <path d="M799.095,2597.57C799.095,2597.57 798.292,2598.24 797.897,2599.52C797.501,2600.81 796.278,2604.94 796.278,2604.94C796.278,2604.94 814.48,2612.17 814.726,2612.24C814.972,2612.31 815.754,2611.7 816.268,2611.31C816.783,2610.93 822.746,2603.87 822.746,2603.87L821.69,2600.46C821.69,2600.46 821.519,2599.55 820.307,2599.1C819.095,2598.65 814.814,2600.39 814.814,2600.39L799.095,2597.57" style="fill:rgb(191,191,191);"/>
            <path d="M818.781,2605.38C818.781,2605.38 818.132,2605.14 817.145,2608.35C816.159,2611.56 815.888,2612.72 815.888,2612.72L914.377,2651.31C914.377,2651.31 915.024,2651.84 915.726,2651.26C916.428,2650.69 919.018,2647.92 919.018,2647.92L923.545,2642.57L921.049,2638.77L915.952,2637.69L884.579,2628.86L825.054,2606.66L818.781,2605.38Z" style="fill:rgb(191,191,191);"/>
            <g transform="matrix(1,0,0,1,-1.50258,-22.9733)">
                <path d="M945.511,2647.52C946.453,2647.8 951.358,2650.01 952.026,2650.22C952.693,2650.42 952.361,2650.83 951.955,2651.15C951.55,2651.46 946.674,2655.09 946.176,2655.52C945.679,2655.95 944.741,2655.59 944.206,2655.39C943.672,2655.2 939.023,2653.85 938.347,2653.55C937.671,2653.25 937.693,2652.69 938.068,2652.46C938.444,2652.23 942.981,2648.45 943.473,2648.1C943.965,2647.74 944.615,2647.25 945.511,2647.52Z" style="fill:rgb(132,132,132);fill-opacity:0.18;"/>
            </g>
            <g transform="matrix(1,0,0,1,11.3214,-17.6305)">
                <path d="M945.511,2647.52C946.453,2647.8 951.358,2650.01 952.026,2650.22C952.693,2650.42 952.361,2650.83 951.955,2651.15C951.55,2651.46 946.674,2655.09 946.176,2655.52C945.679,2655.95 944.741,2655.59 944.206,2655.39C943.672,2655.2 939.023,2653.85 938.347,2653.55C937.671,2653.25 937.693,2652.69 938.068,2652.46C938.444,2652.23 942.981,2648.45 943.473,2648.1C943.965,2647.74 944.615,2647.25 945.511,2647.52Z" style="fill:rgb(132,132,132);fill-opacity:0.18;"/>
            </g>
            <path d="M918.871,2644.66C918.871,2644.66 918.006,2644.91 917.559,2646.16C917.112,2647.41 915.872,2651.93 915.872,2651.93L934.583,2659.3C934.583,2659.3 935.387,2659.11 935.802,2658.77C936.218,2658.43 942.274,2651.01 942.274,2651.01L942.292,2649.62L941.267,2646.95C941.267,2646.95 940.865,2646.34 940.068,2646.15C939.271,2645.95 932.507,2646.18 932.507,2646.18L922.79,2644.6L918.871,2644.66Z" style="fill:rgb(191,191,191);"/>
            <path d="M918.73,2645.7C919.989,2646.13 932.347,2651.12 933.301,2651.46C934.254,2651.8 934.743,2651.9 935.485,2651.21C936.228,2650.51 939.361,2648.24 939.983,2647.67C940.605,2647.1 941.558,2646.72 940.014,2646.1C938.471,2645.49 927.729,2641.22 926.359,2640.69C924.99,2640.15 924.36,2639.93 923.411,2640.76C922.463,2641.6 919.786,2643.75 919.105,2644.36C918.424,2644.97 917.574,2645.3 918.73,2645.7Z" style="fill:rgb(132,132,132);"/>
            <path d="M813.323,2555.24C814.147,2556 818.485,2557.7 820.707,2558.25C821.293,2558.39 822.011,2558.24 822.849,2557.47C823.687,2556.7 827.021,2554.23 827.485,2553.8C827.948,2553.37 828.531,2553.02 827.221,2552.69C825.912,2552.36 821.96,2550.71 821.085,2550.19C820.211,2549.68 819.754,2549.54 818.935,2550.14C818.194,2550.67 814.416,2553.74 813.682,2554.37C812.949,2554.99 813.06,2554.99 813.323,2555.24Z" style="fill:rgb(132,132,132);"/>
            <g transform="matrix(1,0,0,1,9.69206,16.315)">
                <path d="M813.323,2555.24C814.147,2556 818.485,2557.7 820.707,2558.25C821.293,2558.39 822.011,2558.24 822.849,2557.47C823.687,2556.7 827.021,2554.23 827.485,2553.8C827.948,2553.37 828.531,2553.02 827.221,2552.69C825.912,2552.36 821.96,2550.71 821.085,2550.19C820.211,2549.68 819.754,2549.54 818.935,2550.14C818.194,2550.67 814.416,2553.74 813.682,2554.37C812.949,2554.99 813.06,2554.99 813.323,2555.24Z" style="fill:rgb(132,132,132);"/>
            </g>
            <g transform="matrix(1,0,0,1,22.94,21.5743)">
                <path d="M813.323,2555.24C814.147,2556 818.485,2557.7 820.707,2558.25C821.293,2558.39 822.011,2558.24 822.849,2557.47C823.687,2556.7 827.021,2554.23 827.485,2553.8C827.948,2553.37 828.531,2553.02 827.221,2552.69C825.912,2552.36 821.96,2550.71 821.085,2550.19C820.211,2549.68 819.754,2549.54 818.935,2550.14C818.194,2550.67 814.416,2553.74 813.682,2554.37C812.949,2554.99 813.06,2554.99 813.323,2555.24Z" style="fill:rgb(132,132,132);"/>
            </g>
            <g transform="matrix(1,0,0,1,36.4625,26.7685)">
                <path d="M813.323,2555.24C814.147,2556 818.485,2557.7 820.707,2558.25C821.293,2558.39 822.011,2558.24 822.849,2557.47C823.687,2556.7 827.021,2554.23 827.485,2553.8C827.948,2553.37 828.531,2553.02 827.221,2552.69C825.912,2552.36 821.96,2550.71 821.085,2550.19C820.211,2549.68 819.754,2549.54 818.935,2550.14C818.194,2550.67 814.416,2553.74 813.682,2554.37C812.949,2554.99 813.06,2554.99 813.323,2555.24Z" style="fill:rgb(132,132,132);"/>
            </g>
            <g transform="matrix(1,0,0,1,49.5276,32.1472)">
                <path d="M813.323,2555.24C814.147,2556 818.485,2557.7 820.707,2558.25C821.293,2558.39 822.011,2558.24 822.849,2557.47C823.687,2556.7 827.021,2554.23 827.485,2553.8C827.948,2553.37 828.531,2553.02 827.221,2552.69C825.912,2552.36 821.96,2550.71 821.085,2550.19C820.211,2549.68 819.754,2549.54 818.935,2550.14C818.194,2550.67 814.416,2553.74 813.682,2554.37C812.949,2554.99 813.06,2554.99 813.323,2555.24Z" style="fill:rgb(132,132,132);"/>
            </g>
            <g transform="matrix(1,0,0,1,63.113,37.3807)">
                <path d="M813.323,2555.24C814.147,2556 818.485,2557.7 820.707,2558.25C821.293,2558.39 822.011,2558.24 822.849,2557.47C823.687,2556.7 827.021,2554.23 827.485,2553.8C827.948,2553.37 828.531,2553.02 827.221,2552.69C825.912,2552.36 821.96,2550.71 821.085,2550.19C820.211,2549.68 819.754,2549.54 818.935,2550.14C818.194,2550.67 814.416,2553.74 813.682,2554.37C812.949,2554.99 813.06,2554.99 813.323,2555.24Z" style="fill:rgb(132,132,132);"/>
            </g>
            <g transform="matrix(1,0,0,1,76.1549,42.5427)">
                <path d="M813.323,2555.24C814.147,2556 818.485,2557.7 820.707,2558.25C821.293,2558.39 822.011,2558.24 822.849,2557.47C823.687,2556.7 827.021,2554.23 827.485,2553.8C827.948,2553.37 828.531,2553.02 827.221,2552.69C825.912,2552.36 821.96,2550.71 821.085,2550.19C820.211,2549.68 819.754,2549.54 818.935,2550.14C818.194,2550.67 814.416,2553.74 813.682,2554.37C812.949,2554.99 813.06,2554.99 813.323,2555.24Z" style="fill:rgb(132,132,132);"/>
            </g>
            <g transform="matrix(1,0,0,1,89.5372,47.9107)">
                <path d="M813.323,2555.24C814.147,2556 818.485,2557.7 820.707,2558.25C821.293,2558.39 822.011,2558.24 822.849,2557.47C823.687,2556.7 827.021,2554.23 827.485,2553.8C827.948,2553.37 828.531,2553.02 827.221,2552.69C825.912,2552.36 821.96,2550.71 821.085,2550.19C820.211,2549.68 819.754,2549.54 818.935,2550.14C818.194,2550.67 814.416,2553.74 813.682,2554.37C812.949,2554.99 813.06,2554.99 813.323,2555.24Z" style="fill:rgb(132,132,132);"/>
            </g>
            <g transform="matrix(1,0,0,1,13.2888,5.10786)">
                <path d="M813.323,2555.24C814.147,2556 818.485,2557.7 820.707,2558.25C821.293,2558.39 822.011,2558.24 822.849,2557.47C823.687,2556.7 827.021,2554.23 827.485,2553.8C827.948,2553.37 828.531,2553.02 827.221,2552.69C825.912,2552.36 821.96,2550.71 821.085,2550.19C820.211,2549.68 819.754,2549.54 818.935,2550.14C818.194,2550.67 814.416,2553.74 813.682,2554.37C812.949,2554.99 813.06,2554.99 813.323,2555.24Z" style="fill:rgb(132,132,132);"/>
            </g>
            <g transform="matrix(1,0,0,1,26.7187,10.3507)">
                <path d="M813.323,2555.24C814.147,2556 818.485,2557.7 820.707,2558.25C821.293,2558.39 822.011,2558.24 822.849,2557.47C823.687,2556.7 827.021,2554.23 827.485,2553.8C827.948,2553.37 828.531,2553.02 827.221,2552.69C825.912,2552.36 821.96,2550.71 821.085,2550.19C820.211,2549.68 819.754,2549.54 818.935,2550.14C818.194,2550.67 814.416,2553.74 813.682,2554.37C812.949,2554.99 813.06,2554.99 813.323,2555.24Z" style="fill:rgb(132,132,132);"/>
            </g>
            <g transform="matrix(1,0,0,1,40.005,15.5224)">
                <path d="M813.323,2555.24C814.147,2556 818.485,2557.7 820.707,2558.25C821.293,2558.39 822.011,2558.24 822.849,2557.47C823.687,2556.7 827.021,2554.23 827.485,2553.8C827.948,2553.37 828.531,2553.02 827.221,2552.69C825.912,2552.36 821.96,2550.71 821.085,2550.19C820.211,2549.68 819.754,2549.54 818.935,2550.14C818.194,2550.67 814.416,2553.74 813.682,2554.37C812.949,2554.99 813.06,2554.99 813.323,2555.24Z" style="fill:rgb(132,132,132);"/>
            </g>
            <g transform="matrix(1,0,0,1,53.3644,20.8755)">
                <path d="M813.323,2555.24C814.147,2556 818.485,2557.7 820.707,2558.25C821.293,2558.39 822.011,2558.24 822.849,2557.47C823.687,2556.7 827.021,2554.23 827.485,2553.8C827.948,2553.37 828.531,2553.02 827.221,2552.69C825.912,2552.36 821.96,2550.71 821.085,2550.19C820.211,2549.68 819.754,2549.54 818.935,2550.14C818.194,2550.67 814.416,2553.74 813.682,2554.37C812.949,2554.99 813.06,2554.99 813.323,2555.24Z" style="fill:rgb(132,132,132);"/>
            </g>
            <g transform="matrix(1,0,0,1,66.6142,26.082)">
                <path d="M813.323,2555.24C814.147,2556 818.485,2557.7 820.707,2558.25C821.293,2558.39 822.011,2558.24 822.849,2557.47C823.687,2556.7 827.021,2554.23 827.485,2553.8C827.948,2553.37 828.531,2553.02 827.221,2552.69C825.912,2552.36 821.96,2550.71 821.085,2550.19C820.211,2549.68 819.754,2549.54 818.935,2550.14C818.194,2550.67 814.416,2553.74 813.682,2554.37C812.949,2554.99 813.06,2554.99 813.323,2555.24Z" style="fill:rgb(132,132,132);"/>
            </g>
            <g transform="matrix(1,0,0,1,80.0522,31.3414)">
                <path d="M813.323,2555.24C814.147,2556 818.485,2557.7 820.707,2558.25C821.293,2558.39 822.011,2558.24 822.849,2557.47C823.687,2556.7 827.021,2554.23 827.485,2553.8C827.948,2553.37 828.531,2553.02 827.221,2552.69C825.912,2552.36 821.96,2550.71 821.085,2550.19C820.211,2549.68 819.754,2549.54 818.935,2550.14C818.194,2550.67 814.416,2553.74 813.682,2554.37C812.949,2554.99 813.06,2554.99 813.323,2555.24Z" style="fill:rgb(132,132,132);"/>
            </g>
            <g transform="matrix(1,0,0,1,93.3512,36.525)">
                <path d="M813.323,2555.24C814.147,2556 818.485,2557.7 820.707,2558.25C821.293,2558.39 822.011,2558.24 822.849,2557.47C823.687,2556.7 827.021,2554.23 827.485,2553.8C827.948,2553.37 828.531,2553.02 827.221,2552.69C825.912,2552.36 821.96,2550.71 821.085,2550.19C820.211,2549.68 819.754,2549.54 818.935,2550.14C818.194,2550.67 814.416,2553.74 813.682,2554.37C812.949,2554.99 813.06,2554.99 813.323,2555.24Z" style="fill:rgb(132,132,132);"/>
            </g>
            <g transform="matrix(1,0,0,1,106.697,41.8757)">
                <path d="M813.323,2555.24C814.147,2556 818.485,2557.7 820.707,2558.25C821.293,2558.39 822.011,2558.24 822.849,2557.47C823.687,2556.7 827.021,2554.23 827.485,2553.8C827.948,2553.37 828.531,2553.02 827.221,2552.69C825.912,2552.36 821.96,2550.71 821.085,2550.19C820.211,2549.68 819.754,2549.54 818.935,2550.14C818.194,2550.67 814.416,2553.74 813.682,2554.37C812.949,2554.99 813.06,2554.99 813.323,2555.24Z" style="fill:rgb(132,132,132);"/>
            </g>
            <g transform="matrix(1,0,0,1,120.032,47.1056)">
                <path d="M813.323,2555.24C814.147,2556 818.485,2557.7 820.707,2558.25C821.293,2558.39 822.011,2558.24 822.849,2557.47C823.687,2556.7 827.021,2554.23 827.485,2553.8C827.948,2553.37 828.531,2553.02 827.221,2552.69C825.912,2552.36 821.96,2550.71 821.085,2550.19C820.211,2549.68 819.754,2549.54 818.935,2550.14C818.194,2550.67 814.416,2553.74 813.682,2554.37C812.949,2554.99 813.06,2554.99 813.323,2555.24Z" style="fill:rgb(132,132,132);"/>
            </g>
            <g transform="matrix(1,0,0,1,133.379,52.2111)">
                <path d="M813.323,2555.24C814.147,2556 818.485,2557.7 820.707,2558.25C821.293,2558.39 822.011,2558.24 822.849,2557.47C823.687,2556.7 827.021,2554.23 827.485,2553.8C827.948,2553.37 828.531,2553.02 827.221,2552.69C825.912,2552.36 821.96,2550.71 821.085,2550.19C820.211,2549.68 819.754,2549.54 818.935,2550.14C818.194,2550.67 814.416,2553.74 813.682,2554.37C812.949,2554.99 813.06,2554.99 813.323,2555.24Z" style="fill:rgb(132,132,132);"/>
            </g>
            <g transform="matrix(1,0,0,1,146.717,57.5641)">
                <path d="M813.323,2555.24C814.147,2556 818.485,2557.7 820.707,2558.25C821.293,2558.39 822.011,2558.24 822.849,2557.47C823.687,2556.7 827.021,2554.23 827.485,2553.8C827.948,2553.37 828.531,2553.02 827.221,2552.69C825.912,2552.36 821.96,2550.71 821.085,2550.19C820.211,2549.68 819.754,2549.54 818.935,2550.14C818.194,2550.67 814.416,2553.74 813.682,2554.37C812.949,2554.99 813.06,2554.99 813.323,2555.24Z" style="fill:rgb(132,132,132);"/>
            </g>
            <g transform="matrix(1,0,0,1,160.217,62.7805)">
                <path d="M813.323,2555.24C814.147,2556 818.485,2557.7 820.707,2558.25C821.293,2558.39 822.011,2558.24 822.849,2557.47C823.687,2556.7 827.021,2554.23 827.485,2553.8C827.948,2553.37 828.531,2553.02 827.221,2552.69C825.912,2552.36 821.96,2550.71 821.085,2550.19C820.211,2549.68 819.754,2549.54 818.935,2550.14C818.194,2550.67 814.416,2553.74 813.682,2554.37C812.949,2554.99 813.06,2554.99 813.323,2555.24Z" style="fill:rgb(132,132,132);"/>
            </g>
            <g transform="matrix(1,0,0,1,156.245,74.1424)">
                <path d="M813.323,2555.24C814.147,2556 818.485,2557.7 820.707,2558.25C821.293,2558.39 822.011,2558.24 822.849,2557.47C823.687,2556.7 827.021,2554.23 827.485,2553.8C827.948,2553.37 828.531,2553.02 827.221,2552.69C825.912,2552.36 821.96,2550.71 821.085,2550.19C820.211,2549.68 819.754,2549.54 818.935,2550.14C818.194,2550.67 814.416,2553.74 813.682,2554.37C812.949,2554.99 813.06,2554.99 813.323,2555.24Z" style="fill:rgb(132,132,132);"/>
            </g>
            <g transform="matrix(1,0,0,1,3.14121,27.3637)">
                <path d="M813.323,2555.24C814.147,2556 818.485,2557.7 820.707,2558.25C821.293,2558.39 822.011,2558.24 822.849,2557.47C823.687,2556.7 827.021,2554.23 827.485,2553.8C827.948,2553.37 828.531,2553.02 827.221,2552.69C825.912,2552.36 821.96,2550.71 821.085,2550.19C820.211,2549.68 819.754,2549.54 818.935,2550.14C818.194,2550.67 814.416,2553.74 813.682,2554.37C812.949,2554.99 813.06,2554.99 813.323,2555.24Z" style="fill:rgb(132,132,132);"/>
            </g>
            <g transform="matrix(1,0,0,1,16.4822,32.6698)">
                <path d="M813.323,2555.24C814.147,2556 818.485,2557.7 820.707,2558.25C821.293,2558.39 822.011,2558.24 822.849,2557.47C823.687,2556.7 827.021,2554.23 827.485,2553.8C827.948,2553.37 828.531,2553.02 827.221,2552.69C825.912,2552.36 821.96,2550.71 821.085,2550.19C820.211,2549.68 819.754,2549.54 818.935,2550.14C818.194,2550.67 814.416,2553.74 813.682,2554.37C812.949,2554.99 813.06,2554.99 813.323,2555.24Z" style="fill:rgb(132,132,132);"/>
            </g>
            <g transform="matrix(1,0,0,1,29.8116,37.8849)">
                <path d="M813.323,2555.24C814.147,2556 818.485,2557.7 820.707,2558.25C821.293,2558.39 822.011,2558.24 822.849,2557.47C823.687,2556.7 827.021,2554.23 827.485,2553.8C827.948,2553.37 828.531,2553.02 827.221,2552.69C825.912,2552.36 821.96,2550.71 821.085,2550.19C820.211,2549.68 819.754,2549.54 818.935,2550.14C818.194,2550.67 814.416,2553.74 813.682,2554.37C812.949,2554.99 813.06,2554.99 813.323,2555.24Z" style="fill:rgb(132,132,132);"/>
            </g>
            <g transform="matrix(1,0,0,1,43.0542,43.1568)">
                <path d="M813.323,2555.24C814.147,2556 818.485,2557.7 820.707,2558.25C821.293,2558.39 822.011,2558.24 822.849,2557.47C823.687,2556.7 827.021,2554.23 827.485,2553.8C827.948,2553.37 828.531,2553.02 827.221,2552.69C825.912,2552.36 821.96,2550.71 821.085,2550.19C820.211,2549.68 819.754,2549.54 818.935,2550.14C818.194,2550.67 814.416,2553.74 813.682,2554.37C812.949,2554.99 813.06,2554.99 813.323,2555.24Z" style="fill:rgb(132,132,132);"/>
            </g>
            <g transform="matrix(1,0,0,1,56.3912,48.3628)">
                <path d="M813.323,2555.24C814.147,2556 818.485,2557.7 820.707,2558.25C821.293,2558.39 822.011,2558.24 822.849,2557.47C823.687,2556.7 827.021,2554.23 827.485,2553.8C827.948,2553.37 828.531,2553.02 827.221,2552.69C825.912,2552.36 821.96,2550.71 821.085,2550.19C820.211,2549.68 819.754,2549.54 818.935,2550.14C818.194,2550.67 814.416,2553.74 813.682,2554.37C812.949,2554.99 813.06,2554.99 813.323,2555.24Z" style="fill:rgb(132,132,132);"/>
            </g>
            <g transform="matrix(1,0,0,1,69.5115,53.4958)">
                <path d="M813.323,2555.24C814.147,2556 818.485,2557.7 820.707,2558.25C821.293,2558.39 822.011,2558.24 822.849,2557.47C823.687,2556.7 827.021,2554.23 827.485,2553.8C827.948,2553.37 828.531,2553.02 827.221,2552.69C825.912,2552.36 821.96,2550.71 821.085,2550.19C820.211,2549.68 819.754,2549.54 818.935,2550.14C818.194,2550.67 814.416,2553.74 813.682,2554.37C812.949,2554.99 813.06,2554.99 813.323,2555.24Z" style="fill:rgb(132,132,132);"/>
            </g>
            <g transform="matrix(1,0,0,1,82.9615,58.7002)">
                <path d="M813.323,2555.24C814.147,2556 818.485,2557.7 820.707,2558.25C821.293,2558.39 822.011,2558.24 822.849,2557.47C823.687,2556.7 827.021,2554.23 827.485,2553.8C827.948,2553.37 828.531,2553.02 827.221,2552.69C825.912,2552.36 821.96,2550.71 821.085,2550.19C820.211,2549.68 819.754,2549.54 818.935,2550.14C818.194,2550.67 814.416,2553.74 813.682,2554.37C812.949,2554.99 813.06,2554.99 813.323,2555.24Z" style="fill:rgb(132,132,132);"/>
            </g>
            <g transform="matrix(1,0,0,1,96.2303,63.9319)">
                <path d="M813.323,2555.24C814.147,2556 818.485,2557.7 820.707,2558.25C821.293,2558.39 822.011,2558.24 822.849,2557.47C823.687,2556.7 827.021,2554.23 827.485,2553.8C827.948,2553.37 828.531,2553.02 827.221,2552.69C825.912,2552.36 821.96,2550.71 821.085,2550.19C820.211,2549.68 819.754,2549.54 818.935,2550.14C818.194,2550.67 814.416,2553.74 813.682,2554.37C812.949,2554.99 813.06,2554.99 813.323,2555.24Z" style="fill:rgb(132,132,132);"/>
            </g>
            <g transform="matrix(1,0,0,1,109.51,69.1145)">
                <path d="M813.323,2555.24C814.147,2556 818.485,2557.7 820.707,2558.25C821.293,2558.39 822.011,2558.24 822.849,2557.47C823.687,2556.7 827.021,2554.23 827.485,2553.8C827.948,2553.37 828.531,2553.02 827.221,2552.69C825.912,2552.36 821.96,2550.71 821.085,2550.19C820.211,2549.68 819.754,2549.54 818.935,2550.14C818.194,2550.67 814.416,2553.74 813.682,2554.37C812.949,2554.99 813.06,2554.99 813.323,2555.24Z" style="fill:rgb(132,132,132);"/>
            </g>
            <g transform="matrix(1,0,0,1,122.86,74.4259)">
                <path d="M813.323,2555.24C814.147,2556 818.485,2557.7 820.707,2558.25C821.293,2558.39 822.011,2558.24 822.849,2557.47C823.687,2556.7 827.021,2554.23 827.485,2553.8C827.948,2553.37 828.531,2553.02 827.221,2552.69C825.912,2552.36 821.96,2550.71 821.085,2550.19C820.211,2549.68 819.754,2549.54 818.935,2550.14C818.194,2550.67 814.416,2553.74 813.682,2554.37C812.949,2554.99 813.06,2554.99 813.323,2555.24Z" style="fill:rgb(132,132,132);"/>
            </g>
            <g transform="matrix(1,0,0,1,136.082,79.6791)">
                <path d="M813.323,2555.24C814.147,2556 818.485,2557.7 820.707,2558.25C821.293,2558.39 822.011,2558.24 822.849,2557.47C823.687,2556.7 827.021,2554.23 827.485,2553.8C827.948,2553.37 828.531,2553.02 827.221,2552.69C825.912,2552.36 821.96,2550.71 821.085,2550.19C820.211,2549.68 819.754,2549.54 818.935,2550.14C818.194,2550.67 814.416,2553.74 813.682,2554.37C812.949,2554.99 813.06,2554.99 813.323,2555.24Z" style="fill:rgb(132,132,132);"/>
            </g>
            <g transform="matrix(1,0,0,1,-0.565117,36.0009)">
                <path d="M813.323,2555.24C814.147,2556 818.485,2557.7 820.707,2558.25C821.293,2558.39 822.011,2558.24 822.849,2557.47C823.687,2556.7 827.021,2554.23 827.485,2553.8C827.948,2553.37 828.531,2553.02 827.221,2552.69C825.912,2552.36 821.96,2550.71 821.085,2550.19C820.211,2549.68 819.754,2549.54 818.935,2550.14C818.194,2550.67 814.416,2553.74 813.682,2554.37C812.949,2554.99 813.06,2554.99 813.323,2555.24Z" style="fill:rgb(132,132,132);"/>
            </g>
            <g transform="matrix(1,0,0,1,12.665,41.1904)">
                <path d="M813.323,2555.24C814.147,2556 818.485,2557.7 820.707,2558.25C821.293,2558.39 822.011,2558.24 822.849,2557.47C823.687,2556.7 827.021,2554.23 827.485,2553.8C827.948,2553.37 828.531,2553.02 827.221,2552.69C825.912,2552.36 821.96,2550.71 821.085,2550.19C820.211,2549.68 819.754,2549.54 818.935,2550.14C818.194,2550.67 814.416,2553.74 813.682,2554.37C812.949,2554.99 813.06,2554.99 813.323,2555.24Z" style="fill:rgb(132,132,132);"/>
            </g>
            <g transform="matrix(1,0,0,1,25.9704,46.3938)">
                <path d="M813.323,2555.24C814.147,2556 818.485,2557.7 820.707,2558.25C821.293,2558.39 822.011,2558.24 822.849,2557.47C823.687,2556.7 827.021,2554.23 827.485,2553.8C827.948,2553.37 828.531,2553.02 827.221,2552.69C825.912,2552.36 821.96,2550.71 821.085,2550.19C820.211,2549.68 819.754,2549.54 818.935,2550.14C818.194,2550.67 814.416,2553.74 813.682,2554.37C812.949,2554.99 813.06,2554.99 813.323,2555.24Z" style="fill:rgb(132,132,132);"/>
            </g>
            <g transform="matrix(1,0,0,1,39.137,51.6215)">
                <path d="M813.323,2555.24C814.147,2556 818.485,2557.7 820.707,2558.25C821.293,2558.39 822.011,2558.24 822.849,2557.47C823.687,2556.7 827.021,2554.23 827.485,2553.8C827.948,2553.37 828.531,2553.02 827.221,2552.69C825.912,2552.36 821.96,2550.71 821.085,2550.19C820.211,2549.68 819.754,2549.54 818.935,2550.14C818.194,2550.67 814.416,2553.74 813.682,2554.37C812.949,2554.99 813.06,2554.99 813.323,2555.24Z" style="fill:rgb(132,132,132);"/>
            </g>
            <g transform="matrix(1,0,0,1,52.5829,56.8733)">
                <path d="M813.323,2555.24C814.147,2556 818.485,2557.7 820.707,2558.25C821.293,2558.39 822.011,2558.24 822.849,2557.47C823.687,2556.7 827.021,2554.23 827.485,2553.8C827.948,2553.37 828.531,2553.02 827.221,2552.69C825.912,2552.36 821.96,2550.71 821.085,2550.19C820.211,2549.68 819.754,2549.54 818.935,2550.14C818.194,2550.67 814.416,2553.74 813.682,2554.37C812.949,2554.99 813.06,2554.99 813.323,2555.24Z" style="fill:rgb(132,132,132);"/>
            </g>
            <g transform="matrix(1,0,0,1,65.8694,62.1241)">
                <path d="M813.323,2555.24C814.147,2556 818.485,2557.7 820.707,2558.25C821.293,2558.39 822.011,2558.24 822.849,2557.47C823.687,2556.7 827.021,2554.23 827.485,2553.8C827.948,2553.37 828.531,2553.02 827.221,2552.69C825.912,2552.36 821.96,2550.71 821.085,2550.19C820.211,2549.68 819.754,2549.54 818.935,2550.14C818.194,2550.67 814.416,2553.74 813.682,2554.37C812.949,2554.99 813.06,2554.99 813.323,2555.24Z" style="fill:rgb(132,132,132);"/>
            </g>
            <g transform="matrix(1,0,0,1,79.23,67.2893)">
                <path d="M813.323,2555.24C814.147,2556 818.485,2557.7 820.707,2558.25C821.293,2558.39 822.011,2558.24 822.849,2557.47C823.687,2556.7 827.021,2554.23 827.485,2553.8C827.948,2553.37 828.531,2553.02 827.221,2552.69C825.912,2552.36 821.96,2550.71 821.085,2550.19C820.211,2549.68 819.754,2549.54 818.935,2550.14C818.194,2550.67 814.416,2553.74 813.682,2554.37C812.949,2554.99 813.06,2554.99 813.323,2555.24Z" style="fill:rgb(132,132,132);"/>
            </g>
            <g transform="matrix(1,0,0,1,92.5024,72.6242)">
                <path d="M813.323,2555.24C814.147,2556 818.485,2557.7 820.707,2558.25C821.293,2558.39 822.011,2558.24 822.849,2557.47C823.687,2556.7 827.021,2554.23 827.485,2553.8C827.948,2553.37 828.531,2553.02 827.221,2552.69C825.912,2552.36 821.96,2550.71 821.085,2550.19C820.211,2549.68 819.754,2549.54 818.935,2550.14C818.194,2550.67 814.416,2553.74 813.682,2554.37C812.949,2554.99 813.06,2554.99 813.323,2555.24Z" style="fill:rgb(132,132,132);"/>
            </g>
            <g transform="matrix(1,0,0,1,105.762,77.7844)">
                <path d="M813.323,2555.24C814.147,2556 818.485,2557.7 820.707,2558.25C821.293,2558.39 822.011,2558.24 822.849,2557.47C823.687,2556.7 827.021,2554.23 827.485,2553.8C827.948,2553.37 828.531,2553.02 827.221,2552.69C825.912,2552.36 821.96,2550.71 821.085,2550.19C820.211,2549.68 819.754,2549.54 818.935,2550.14C818.194,2550.67 814.416,2553.74 813.682,2554.37C812.949,2554.99 813.06,2554.99 813.323,2555.24Z" style="fill:rgb(132,132,132);"/>
            </g>
            <g transform="matrix(1,0,0,1,118.977,82.9327)">
                <path d="M813.323,2555.24C814.147,2556 818.485,2557.7 820.707,2558.25C821.293,2558.39 822.011,2558.24 822.849,2557.47C823.687,2556.7 827.021,2554.23 827.485,2553.8C827.948,2553.37 828.531,2553.02 827.221,2552.69C825.912,2552.36 821.96,2550.71 821.085,2550.19C820.211,2549.68 819.754,2549.54 818.935,2550.14C818.194,2550.67 814.416,2553.74 813.682,2554.37C812.949,2554.99 813.06,2554.99 813.323,2555.24Z" style="fill:rgb(132,132,132);"/>
            </g>
            <g transform="matrix(1,0,0,1,143.062,68.9244)">
                <path d="M813.323,2555.24C814.147,2556 818.485,2557.7 820.707,2558.25C821.293,2558.39 822.011,2558.24 822.849,2557.47C823.687,2556.7 827.021,2554.23 827.485,2553.8C827.948,2553.37 828.531,2553.02 827.221,2552.69C825.912,2552.36 821.96,2550.71 821.085,2550.19C820.211,2549.68 819.754,2549.54 818.935,2550.14C818.194,2550.67 814.416,2553.74 813.682,2554.37C812.949,2554.99 813.06,2554.99 813.323,2555.24Z" style="fill:rgb(132,132,132);"/>
            </g>
            <g transform="matrix(1,0,0,1,102.866,53.1053)">
                <path d="M813.323,2555.24C814.147,2556 818.485,2557.7 820.707,2558.25C821.293,2558.39 822.011,2558.24 822.849,2557.47C823.687,2556.7 827.021,2554.23 827.485,2553.8C827.948,2553.37 828.531,2553.02 827.221,2552.69C825.912,2552.36 821.96,2550.71 821.085,2550.19C820.211,2549.68 819.754,2549.54 818.935,2550.14C818.194,2550.67 814.416,2553.74 813.682,2554.37C812.949,2554.99 813.06,2554.99 813.323,2555.24Z" style="fill:rgb(132,132,132);"/>
            </g>
            <g transform="matrix(1,0,0,1,116.172,58.3448)">
                <path d="M813.323,2555.24C814.147,2556 818.485,2557.7 820.707,2558.25C821.293,2558.39 822.011,2558.24 822.849,2557.47C823.687,2556.7 827.021,2554.23 827.485,2553.8C827.948,2553.37 828.531,2553.02 827.221,2552.69C825.912,2552.36 821.96,2550.71 821.085,2550.19C820.211,2549.68 819.754,2549.54 818.935,2550.14C818.194,2550.67 814.416,2553.74 813.682,2554.37C812.949,2554.99 813.06,2554.99 813.323,2555.24Z" style="fill:rgb(132,132,132);"/>
            </g>
            <g transform="matrix(1,0,0,1,129.433,63.5689)">
                <path d="M813.323,2555.24C814.147,2556 818.485,2557.7 820.707,2558.25C821.293,2558.39 822.011,2558.24 822.849,2557.47C823.687,2556.7 827.021,2554.23 827.485,2553.8C827.948,2553.37 828.531,2553.02 827.221,2552.69C825.912,2552.36 821.96,2550.71 821.085,2550.19C820.211,2549.68 819.754,2549.54 818.935,2550.14C818.194,2550.67 814.416,2553.74 813.682,2554.37C812.949,2554.99 813.06,2554.99 813.323,2555.24Z" style="fill:rgb(132,132,132);"/>
            </g>
            <path d="M810.597,2558.1C811.477,2558.49 820.926,2562.4 822.446,2562.89C823.967,2563.38 824.48,2563.3 823.641,2563.99C822.802,2564.67 819.142,2567.77 818.465,2568.27C817.788,2568.77 817.235,2568.87 815.925,2568.47C814.616,2568.08 804.215,2563.9 803.629,2563.54C803.043,2563.18 802.919,2562.92 803.605,2562.38C804.291,2561.83 807.926,2558.91 808.512,2558.42C809.099,2557.94 809.398,2557.55 810.597,2558.1Z" style="fill:rgb(132,132,132);"/>
            <path d="M800.854,2568.59C802.081,2569.15 814.348,2573.85 815.646,2574.33C816.944,2574.81 818.651,2575.08 817.653,2575.9C816.655,2576.72 813.25,2579.29 812.286,2580.05C811.322,2580.8 810.957,2580.61 809.164,2580.02C807.37,2579.43 795.169,2574.59 794.068,2574.08C792.968,2573.58 792.802,2573.34 793.67,2572.62C794.538,2571.91 797.496,2569.53 798.238,2568.97C798.98,2568.41 798.949,2567.71 800.854,2568.59Z" style="fill:rgb(132,132,132);"/>
            <path d="M790.694,2576.76C791.725,2577.24 810.966,2584.75 812.281,2585.22C813.597,2585.7 814.684,2585.85 813.787,2586.51C812.89,2587.17 809.401,2590.2 808.731,2590.71C808.061,2591.23 807.864,2591.67 806.05,2590.98C804.235,2590.28 785.114,2582.85 783.905,2582.24C782.695,2581.63 782.616,2581.41 783.591,2580.55C784.566,2579.69 787.399,2577.58 788.142,2576.98C788.885,2576.39 788.81,2575.89 790.694,2576.76Z" style="fill:rgb(132,132,132);"/>
            <path d="M792.639,2588.15C793.301,2588.4 799.399,2590.87 800.336,2591.2C801.274,2591.52 802.096,2591.8 801.295,2592.43C800.494,2593.05 796.594,2596.23 795.921,2596.78C795.248,2597.33 794.97,2597.29 793.865,2596.87C792.759,2596.44 786.629,2593.94 785.663,2593.58C784.697,2593.21 784.923,2592.82 785.665,2592.3C786.407,2591.79 789.977,2588.82 790.525,2588.4C791.073,2587.98 791.382,2587.69 792.639,2588.15Z" style="fill:rgb(132,132,132);"/>
            <path d="M806.279,2593.46C807.164,2593.82 818.292,2598.16 819.571,2598.68C820.85,2599.19 821.614,2599.47 820.788,2600.17C819.963,2600.87 816.979,2603.23 815.979,2604C814.979,2604.76 814.769,2605.1 813.252,2604.46C811.734,2603.82 800.704,2599.45 799.474,2598.92C798.244,2598.39 798.095,2598.3 799.019,2597.56C799.944,2596.81 802.696,2594.6 803.489,2593.93C804.282,2593.26 804.8,2592.89 806.279,2593.46" style="fill:rgb(132,132,132);"/>
            <path d="M826.271,2601.34C827.654,2601.88 917.816,2637.35 919.592,2638C921.368,2638.65 921.772,2638.69 920.709,2639.59C919.646,2640.48 916.777,2642.8 915.824,2643.52C914.872,2644.23 914.518,2644.18 912.869,2643.51C911.22,2642.85 820.801,2607.41 819.3,2606.71C817.8,2606.01 817.782,2605.86 818.681,2605.22C819.58,2604.58 822.608,2602.06 823.346,2601.49C824.084,2600.93 824.424,2600.62 826.271,2601.34Z" style="fill:rgb(132,132,132);"/>
            <path d="M925.882,2640.47C926.856,2640.88 938.341,2645.37 939.593,2645.88C940.844,2646.39 941.402,2646.67 940.613,2647.23C939.824,2647.8 936.453,2650.69 935.67,2651.33C934.886,2651.96 933.955,2652 932.604,2651.33C931.253,2650.66 920.132,2646.41 919.005,2645.97C917.878,2645.54 918.113,2645.02 918.698,2644.53C919.283,2644.05 922.733,2641.32 923.379,2640.85C924.025,2640.37 924.655,2639.95 925.882,2640.47Z" style="fill:none;"/>
            <path d="M938.265,2652.35C938.265,2652.35 937.515,2652.99 937.319,2653.51C937.123,2654.03 935.513,2659.71 935.513,2659.71C935.513,2659.71 944.859,2663.37 945.966,2663.7C947.072,2664.02 947.993,2663.97 948.931,2663.32C949.869,2662.67 956.673,2657.23 956.673,2657.23C956.673,2657.23 954.883,2652.84 954.715,2652.46C954.546,2652.08 954.432,2651.78 953.564,2651.45C952.696,2651.14 948.859,2652.93 948.859,2652.93L941.77,2652.67L938.265,2652.35" style="fill:rgb(191,191,191);"/>
            <path d="M945.314,2648.12C946.305,2648.42 952.14,2650.77 953.063,2651.16C953.986,2651.56 954.674,2651.8 953.904,2652.4C953.135,2652.99 949.985,2655.42 949.126,2656.1C948.267,2656.79 948.174,2657.2 946.69,2656.67C945.206,2656.13 939.314,2653.78 938.381,2653.32C937.449,2652.85 937.886,2652.62 938.665,2652.01C939.444,2651.39 942.47,2649.09 943.113,2648.56C943.756,2648.03 943.938,2647.7 945.314,2648.12Z" style="fill:rgb(132,132,132);"/>
            <path d="M956.398,2656.29L957.462,2656.87C957.462,2656.87 958.413,2656.52 959.471,2656.89C960.529,2657.27 968.238,2660.3 969.183,2660.71C970.129,2661.12 971.586,2661.23 972.638,2660.46C973.69,2659.7 980.368,2654.41 980.368,2654.41C980.368,2654.41 977.877,2650.72 977.739,2650.48C977.601,2650.24 977.136,2649.86 976.425,2649.91C975.714,2649.95 970.905,2651.73 970.905,2651.73L959.697,2649.67L949.11,2645.83C949.11,2645.83 946.443,2644.59 945.415,2645.9C944.387,2647.21 943.98,2647.92 943.98,2647.92C943.98,2647.92 944.234,2647.74 945.043,2648.04C945.853,2648.34 953.145,2651.28 953.145,2651.28C953.145,2651.28 954.671,2652.22 954.853,2652.88C955.036,2653.55 955.696,2655.86 955.696,2655.86L956.398,2656.29Z" style="fill:rgb(191,191,191);"/>
            <path d="M960.4,2643.63C960.4,2643.63 961.828,2640.89 962.05,2640.51C962.271,2640.12 962.888,2639.32 963.556,2639.04C964.224,2638.76 969.379,2639.78 969.379,2639.78L981.494,2642.01L986.654,2641.66C986.654,2641.66 987.455,2641.57 987.938,2642.38C988.421,2643.19 990.571,2646.35 990.571,2646.35L981.126,2653.84L979.205,2653.35L977.535,2651.15L976.669,2650.99L961.96,2645.35L960.4,2643.63Z" style="fill:rgb(191,191,191);"/>
            <path d="M953.568,2640.64C954.463,2641.08 974.939,2649.09 975.797,2649.42C976.656,2649.75 977.471,2649.9 976.802,2650.46C976.133,2651.02 972.183,2654.42 971.43,2654.95C970.677,2655.48 970.302,2655.41 969.224,2654.99C968.146,2654.58 948.62,2647.08 947.206,2646.46C945.791,2645.84 945.321,2645.4 946.035,2644.86C946.749,2644.32 950.352,2641.52 951.043,2640.97C951.734,2640.43 951.95,2639.85 953.568,2640.64Z" style="fill:rgb(132,132,132);"/>
            <path d="M980.259,2639.5C980.259,2639.5 982.099,2635.11 982.263,2634.76C982.428,2634.42 983.118,2633.74 983.578,2633.43C984.038,2633.11 987.217,2633.79 987.217,2633.79L991.894,2634.57L997.381,2632.38C997.381,2632.38 997.824,2632.24 998.11,2632.91C998.395,2633.58 1000.88,2638.13 1000.88,2638.13L991.284,2645.74L989.522,2645.27L981.588,2640.97L980.259,2639.5Z" style="fill:rgb(191,191,191);"/>
            <path d="M970.811,2635.32C972.126,2635.94 984.451,2640.86 985.95,2641.33C987.449,2641.8 987.53,2641.93 986.734,2642.65C985.938,2643.37 982.569,2646.15 981.779,2646.76C980.988,2647.37 980.41,2647.37 978.933,2646.82C977.457,2646.26 964.39,2641.15 963.47,2640.59C962.551,2640.03 962.72,2639.72 963.491,2639.1C964.261,2638.48 967.334,2635.93 967.977,2635.44C968.62,2634.95 968.974,2634.45 970.811,2635.32Z" style="fill:rgb(132,132,132);"/>
            <path d="M984.657,2627.8C984.657,2627.8 986.027,2624.13 986.177,2623.74C986.326,2623.35 986.504,2622.69 987.036,2622.45C987.567,2622.22 993.838,2623.15 993.838,2623.15L1006.57,2623.42C1006.57,2623.42 1007.56,2623.14 1008,2623.95C1008.44,2624.77 1010.99,2630.07 1010.99,2630.07L1001.59,2637.51C1001.59,2637.51 1001.04,2637.66 1000.05,2637.24C999.063,2636.83 989.406,2632.12 989.406,2632.12L985.615,2630.91L984.657,2627.8Z" style="fill:rgb(191,191,191);"/>
            <g transform="matrix(1,0,0,1,169.702,79.1668)">
                <path d="M813.323,2555.24C814.147,2556 818.485,2557.7 820.707,2558.25C821.293,2558.39 822.011,2558.24 822.849,2557.47C823.687,2556.7 827.021,2554.23 827.485,2553.8C827.948,2553.37 828.531,2553.02 827.221,2552.69C825.912,2552.36 821.96,2550.71 821.085,2550.19C820.211,2549.68 819.754,2549.54 818.935,2550.14C818.194,2550.67 814.416,2553.74 813.682,2554.37C812.949,2554.99 813.06,2554.99 813.323,2555.24Z" style="fill:rgb(132,132,132);"/>
            </g>
            <path d="M994.446,2618.33C995.485,2618.89 1004.88,2622.5 1005.83,2622.82C1006.78,2623.14 1008.37,2623.25 1007.6,2623.92C1006.84,2624.59 1003.07,2627.54 1002.27,2628.24C1001.48,2628.93 1000.71,2628.93 999.57,2628.45C998.433,2627.97 988.06,2623.99 987.296,2623.55C986.531,2623.1 986.453,2622.85 987.217,2622.26C987.98,2621.68 991.602,2618.93 992.146,2618.49C993.317,2617.54 993.561,2617.86 994.446,2618.33Z" style="fill:rgb(132,132,132);"/>
        </g>
        <g transform="matrix(1,0,0,1,1792.52,81.625)">
            <path d="M874.45,2347.6C874.595,2342.62 876.795,2339.95 882.234,2342.1C888.015,2344.4 1017.4,2394.78 1021.64,2396.79C1025.88,2398.79 1028.36,2401.88 1027.84,2408.27C1027.31,2414.66 1016.52,2576.96 1016.04,2581.41C1015.57,2585.85 1014.57,2588.56 1007.21,2585.92C999.837,2583.28 872.868,2533.05 867.666,2530.72C862.464,2528.41 862.762,2524.36 862.964,2520.68C863.166,2517 874.435,2348.13 874.45,2347.6Z" style="fill:none;stroke:rgb(102,97,96);stroke-width:0.71px;"/>
            <path d="M876.433,2327.47C876.433,2327.47 984.486,2266.59 986.597,2265.14C988.707,2263.69 989.65,2264.18 991.194,2264.78C992.739,2265.37 1019.15,2275.57 1024.35,2277.74C1029.55,2279.92 1034.13,2283.23 1037.31,2289.23C1040.49,2295.22 1043.3,2299.41 1045.24,2301.5C1047.18,2303.6 1048.42,2305.76 1058.79,2309.63C1069.16,2313.5 1084.8,2319.91 1084.8,2319.91C1084.8,2319.91 1101.11,2310.78 1101.92,2310.19C1102.73,2309.61 1103.9,2308.99 1106.76,2310.23C1109.62,2311.47 1136.16,2321.6 1140.41,2323.48C1144.66,2325.37 1148.18,2327.42 1151.14,2332.27C1154.1,2337.13 1157.7,2344.08 1157.96,2345.38C1157.96,2345.38 1157.92,2534.84 1157.99,2538.78C1158.07,2542.72 1157.16,2544.86 1154.81,2546.39C1152.47,2547.91 1045.81,2617.16 1041.88,2619.35C1037.94,2621.53 1036.55,2621.39 1032.6,2619.8C1028.67,2618.22 891.578,2564.2 886.153,2562.02C880.729,2559.85 879.205,2558.24 879.01,2554.71C878.815,2551.18 878.991,2541.93 878.991,2541.93L1015.89,2592.36L1032.12,2399.8L880.532,2332.88L876.433,2327.47Z" style="fill:rgb(230,230,230);stroke:rgb(102,97,96);stroke-width:1.41px;"/>
            <path d="M873.473,2336.56C873.707,2333.02 872.834,2323.78 883.122,2328.16C893.207,2332.46 1025.38,2383.97 1029.31,2385.6C1033.23,2387.24 1036.8,2390.05 1036.43,2396.48C1036.06,2402.9 1023.65,2586.13 1023.34,2591.31C1023.01,2596.84 1021.02,2599.52 1015.65,2597.57C1010.07,2595.54 870.745,2540.8 866.835,2539.17C862.925,2537.53 860.201,2533.58 860.664,2527.88C861.126,2522.18 873.123,2341.86 873.473,2336.56Z" style="fill:rgb(230,230,230);stroke:rgb(102,97,96);stroke-width:1.41px;"/>
            <path d="M884.142,2359.17C884.312,2357.1 884.88,2354.75 888.624,2356.41C892.367,2358.06 1010.47,2403.96 1013.92,2405.63C1017.36,2407.31 1017.52,2409.27 1017.31,2411.73C1017.1,2414.19 1010.72,2511.73 1010.21,2515.19C1009.71,2518.65 1008.54,2518.85 1005.6,2517.71C1002.65,2516.57 883.055,2469.69 880.083,2468.26C877.111,2466.84 877.189,2465.13 877.3,2462.6C877.411,2460.07 884.09,2359.8 884.142,2359.17Z" style="fill:rgb(217,217,217);stroke:rgb(102,97,96);stroke-width:1.2px;"/>
            <path d="M996.653,2590.46C996.653,2590.46 996.606,2596.89 996.608,2598.03C996.611,2599.17 996.71,2600.72 999.279,2601.85C1001.85,2602.97 1017.97,2609.27 1019.63,2609.84C1021.29,2610.4 1021.55,2610.18 1022.07,2609.52C1022.07,2609.52 1021.26,2609.46 1020.22,2609.03C1019.18,2608.59 1001.25,2601.57 1000.06,2601.02C998.88,2600.46 997.799,2600.01 997.731,2597.94C997.663,2595.86 997.779,2590.71 997.779,2590.71L996.653,2590.46Z" style="fill:rgb(191,191,191);stroke:rgb(102,97,96);stroke-width:0.42px;"/>
            <path d="M892.573,2368.28C893.094,2366.45 893.362,2361.95 899.514,2363.61C919.318,2368.95 988.746,2396.35 1008.79,2406.68C1016.11,2410.45 1015.06,2413.68 1015.06,2417.1C1015.07,2420.52 1012.39,2485.63 1009.29,2502.09C1008.51,2506.21 1008.13,2508.9 998.019,2505.52C991.792,2503.44 911.562,2474.43 892.71,2463.9C886.706,2460.55 886.897,2456.13 886.671,2452.9C886.428,2449.43 889.358,2379.59 892.573,2368.28Z" style="fill:rgb(232,226,227);stroke:rgb(102,97,96);stroke-width:0.99px;"/>
            <path d="M1026.82,2279.02L965.176,2313.52L1042.35,2344.04L1084.68,2319.98" style="fill:none;stroke:rgb(102,97,96);stroke-width:1.41px;"/>
            <path d="M1021.14,2597.48C1021.14,2597.48 1031.07,2592.59 1031.61,2592.38C1032.15,2592.17 1032.53,2593.04 1032.5,2594.66C1032.48,2596.28 1032.49,2619.62 1032.49,2619.62" style="fill:none;stroke:rgb(102,97,96);stroke-width:1.41px;"/>
            <path d="M938.546,2521.17C940.705,2521.89 980.41,2537.54 980.41,2537.54C980.41,2537.54 980.475,2536.29 980.53,2535.23C980.585,2534.18 981.061,2532.97 983.466,2534C985.871,2535.02 1005.24,2542.43 1007.2,2543.29C1009.15,2544.16 1009.5,2545.25 1009.42,2547.11C1009.29,2549.72 1008.93,2556.71 1008.64,2558.69C1008.36,2560.68 1007.61,2560.64 1005.85,2560.1C1004.09,2559.56 984.628,2551.66 982.304,2550.84C979.981,2550.02 979.341,2548.26 979.892,2545.27C979.892,2545.27 940.518,2529.75 938.166,2528.82C935.814,2527.9 935.622,2526.02 935.829,2524.05C936.037,2522.08 936.108,2520.36 938.546,2521.17Z" style="fill:none;stroke:rgb(102,97,96);stroke-width:0.56px;"/>
            <path d="M944.133,2524.76C945.496,2525.17 985.994,2541.22 985.994,2541.22C985.994,2541.22 986.157,2538.83 986.167,2538.38C986.177,2537.94 986.773,2536.71 988.36,2537.3C989.948,2537.9 1000.75,2542.24 1002.12,2542.75C1003.49,2543.26 1004.45,2544.06 1004.28,2545.95C1004.1,2547.84 1003.96,2552.9 1003.75,2554.05C1003.54,2555.2 1003.05,2555.6 1001.46,2555.05C999.864,2554.5 988.898,2550.25 987.415,2549.56C985.932,2548.87 985.515,2547.09 985.541,2546.3C985.566,2545.5 985.674,2544.2 985.674,2544.2C985.674,2544.2 946.292,2528.59 944.331,2527.9C942.37,2527.21 942.151,2526.32 942.241,2525.51C942.33,2524.7 942.643,2524.32 944.133,2524.76Z" style="fill:rgb(102,97,96);"/>
            <path d="M979.786,2545.16L985.635,2544.33" style="fill:none;stroke:rgb(102,97,96);stroke-width:0.56px;"/>
            <path d="M980.292,2537.41L986.129,2541.27" style="fill:none;stroke:rgb(102,97,96);stroke-width:0.56px;"/>
            <path d="M874.791,2509.2C875.695,2509.51 880.606,2511.45 881.362,2511.77C882.118,2512.08 883.41,2512.95 883.308,2514.88C883.206,2516.81 882.935,2521.61 882.847,2522.87C882.758,2524.13 881.809,2524.68 880.35,2524.08C878.891,2523.49 874.931,2521.95 873.744,2521.45C872.558,2520.95 871.949,2519.5 872.043,2518.27C872.136,2517.03 872.5,2511.48 872.563,2510.58C872.626,2509.67 873.204,2508.66 874.791,2509.2Z" style="fill:none;stroke:rgb(102,97,96);stroke-width:0.71px;"/>
            <g transform="matrix(1,0,0,1,-0.280658,-0.488243)">
                <path d="M877.797,2513.91C877.797,2513.91 877.712,2511.95 879.692,2512.16C879.692,2512.16 879.739,2514.25 877.797,2513.91Z" style="fill:rgb(156,181,171);"/>
                <path d="M874.953,2519.76C874.953,2519.76 875.38,2520.73 875.897,2521C876.414,2521.26 876.945,2521.02 877.317,2521.13C877.683,2521.23 878.325,2521.69 878.609,2522.02C878.892,2522.36 879.668,2522.22 879.888,2522.08C880.107,2521.94 880.26,2521.76 880.26,2521.76L879.424,2520.47L877.084,2520.01L874.953,2519.76Z" style="fill:rgb(122,133,148);"/>
                <path d="M874.328,2518.18C874.328,2518.18 874.675,2519.27 874.937,2519.75L880.186,2521.84C880.186,2521.84 880.844,2521.22 881.033,2520.84L878.431,2519.08L874.328,2518.18Z" style="fill:rgb(167,116,121);"/>
                <path d="M874.002,2516.62C874.002,2516.62 874.167,2517.63 874.305,2518.18L881.034,2520.86L881.274,2520.42C881.274,2520.42 880.912,2520.28 880.315,2519.1L876.422,2516.4L874.002,2516.62Z" style="fill:rgb(196,79,98);"/>
                <path d="M873.937,2515.16C873.937,2515.16 873.933,2516.09 873.998,2516.63L880.337,2519.14C880.337,2519.14 880.03,2518.64 880.139,2517.61L878.36,2516.1L873.937,2515.16Z" style="fill:rgb(232,170,114);"/>
                <path d="M874.445,2513.88C874.445,2513.88 874.067,2514.26 873.935,2515.17L880.126,2517.63C880.126,2517.63 880.288,2516.81 880.838,2516.41L879.314,2515.43L876.979,2514.53L874.445,2513.88Z" style="fill:rgb(233,189,122);"/>
                <path d="M874.404,2513.89L880.839,2516.43L881.245,2516.26C881.245,2516.26 880.636,2514.3 878.457,2514.53C878.232,2514.56 877.779,2514.43 877.431,2514.11C877.084,2513.79 875.832,2512.47 874.404,2513.89Z" style="fill:rgb(156,181,171);"/>
            </g>
            <path d="M1022.06,2609.52C1022.06,2609.52 1022.26,2609.09 1022.26,2608.65C1022.27,2608.21 1022.25,2600.1 1022.26,2599.67C1022.26,2599.23 1022,2598.3 1021.41,2597.74" style="fill:none;stroke:rgb(102,97,96);stroke-width:0.49px;"/>
            <path d="M1013.39,2596.94L1013.39,2603.24L1019.62,2605.69L1019.62,2598.36L1016.54,2597.84L1013.39,2596.94Z" style="fill:none;stroke:rgb(102,97,96);stroke-width:0.49px;"/>
            <path d="M1014.65,2598.33L1014.65,2602.75L1018.98,2604.48L1019,2600.08L1018.25,2599.69L1017.83,2598.49L1016,2597.89L1015.53,2597.84L1015.32,2598.54L1014.65,2598.33" style="fill:rgb(102,97,96);"/>
            <path d="M1055.3,2590.94C1056.22,2590.38 1152.38,2528.16 1153.16,2527.53C1153.93,2526.9 1154.97,2527.72 1153.55,2528.74C1152.13,2529.77 1056.5,2591.77 1055.28,2592.32C1054.5,2592.67 1054.61,2591.36 1055.3,2590.94Z" style="fill:rgb(191,191,191);stroke:rgb(102,97,96);stroke-width:0.49px;"/>
            <g transform="matrix(1,0,0,1,0,3.36835)">
                <path d="M1055.3,2590.94C1056.22,2590.38 1152.38,2528.16 1153.16,2527.53C1153.93,2526.9 1154.97,2527.72 1153.55,2528.74C1152.13,2529.77 1056.5,2591.77 1055.28,2592.32C1054.5,2592.67 1054.61,2591.36 1055.3,2590.94Z" style="fill:rgb(191,191,191);stroke:rgb(102,97,96);stroke-width:0.49px;"/>
            </g>
            <g transform="matrix(1,0,0,1,0,6.69737)">
                <path d="M1055.3,2590.94C1056.22,2590.38 1152.38,2528.16 1153.16,2527.53C1153.93,2526.9 1154.97,2527.72 1153.55,2528.74C1152.13,2529.77 1056.5,2591.77 1055.28,2592.32C1054.5,2592.67 1054.61,2591.36 1055.3,2590.94Z" style="fill:rgb(191,191,191);stroke:rgb(102,97,96);stroke-width:0.49px;"/>
            </g>
            <g transform="matrix(1,0,0,1,0,10.0219)">
                <path d="M1055.3,2590.94C1056.22,2590.38 1152.38,2528.16 1153.16,2527.53C1153.93,2526.9 1154.97,2527.72 1153.55,2528.74C1152.13,2529.77 1056.5,2591.77 1055.28,2592.32C1054.5,2592.67 1054.61,2591.36 1055.3,2590.94Z" style="fill:rgb(191,191,191);stroke:rgb(102,97,96);stroke-width:0.49px;"/>
            </g>
            <g transform="matrix(1,0,0,1,0,13.3255)">
                <path d="M1055.3,2590.94C1056.22,2590.38 1152.38,2528.16 1153.16,2527.53C1153.93,2526.9 1154.97,2527.72 1153.55,2528.74C1152.13,2529.77 1056.5,2591.77 1055.28,2592.32C1054.5,2592.67 1054.61,2591.36 1055.3,2590.94Z" style="fill:rgb(191,191,191);stroke:rgb(102,97,96);stroke-width:0.49px;"/>
            </g>
            <g transform="matrix(1.08891,0,0,1.08891,-89.7284,-221.259)">
                <path d="M914.436,2429.41C914.436,2429.41 925.367,2427.96 926.761,2425.05C928.156,2422.13 927.922,2411.21 933.43,2413.46C938.937,2415.7 935.26,2423.41 929.946,2427.01C929.946,2427.01 934.747,2428.94 936.28,2432.81C937.138,2434.98 935.447,2437.61 935.165,2438.32C934.816,2439.2 933.009,2444.56 940.342,2443.6C940.342,2443.6 936.603,2432.91 944.608,2433.16C946.547,2433.22 948.375,2437.1 948.218,2439.12C948.024,2441.6 947.734,2443.31 945.538,2444.68C943.844,2445.74 945.362,2446.7 946.49,2447.2C947.617,2447.7 950.381,2447.16 951.803,2445.88C951.803,2445.88 949.938,2422.63 958.664,2424.05C964.701,2425.04 961.023,2438.09 960.431,2439.69C959.84,2441.3 958.015,2444.71 955.109,2446.94C955.109,2446.94 957.838,2454.06 964.361,2450.47C964.361,2450.47 960.992,2425.7 971.407,2428.59C980.083,2431 971.517,2448.02 968.926,2450.2C966.474,2452.26 969.972,2454.63 970.576,2455.2C971.341,2455.91 972.609,2456.44 975.818,2454.1C975.818,2454.1 974.452,2446.48 982.59,2447.02C986.13,2447.25 987.938,2451.18 988.296,2452.08C988.296,2452.08 990.725,2451.12 992.118,2450.94C993.51,2450.76 997.724,2452.13 993.398,2453.8C990.771,2454.81 989.049,2454.48 988.515,2454.52C987.981,2454.56 988.751,2462.1 983.151,2462.54C979.04,2462.87 976.809,2459.44 975.847,2457.76C975.847,2457.76 974.36,2460.59 970.171,2457.94C966.912,2455.88 965.84,2453.49 965.701,2453.05C965.701,2453.05 963.013,2456.17 958.389,2453.79C954.914,2452 953.614,2449.38 953.186,2448.68C953.186,2448.68 950.602,2451.29 946.222,2449.51C943.678,2448.47 942.451,2446.56 941.885,2445.99C941.885,2445.99 939.164,2447.27 935.76,2445.35C932.356,2443.42 931.782,2440 932.871,2436.63C933.959,2433.26 932.984,2429.07 929.455,2431.2C925.927,2433.32 925.541,2438.87 925.497,2440.33L922.829,2439.33C922.829,2439.33 924.17,2433.33 924.638,2431.61C925.105,2429.88 925.413,2429.39 923.51,2430.29C921.607,2431.19 917.693,2432.04 916.13,2431.89L914.436,2429.41ZM978.145,2457.34C978.794,2458.35 980.646,2460.64 983.321,2458.77C985.996,2456.9 986.615,2452.51 984.186,2450.69C981.756,2448.87 980.028,2449.76 978.227,2451.95C977.093,2453.33 977.759,2456.73 978.145,2457.34ZM966.457,2447.07C966.295,2445.47 965.771,2441.18 966.997,2437.23C968.223,2433.27 969.673,2431.48 971.002,2431.98C972.331,2432.48 971.841,2436.7 970.753,2439.82C969.033,2444.76 967.211,2448.31 966.457,2447.07ZM954.084,2442.94C953.923,2441.35 953.398,2437.06 954.624,2433.11C955.85,2429.15 957.3,2427.36 958.629,2427.86C959.958,2428.36 959.468,2432.58 958.38,2435.7C956.66,2440.64 954.838,2444.19 954.084,2442.94ZM942.907,2442.63C942.051,2442.79 941.671,2441.19 942.013,2438.68C942.302,2436.56 944.839,2434.78 945.377,2437.26C946.005,2440.14 944.784,2442.27 942.907,2442.63ZM929.211,2423.97C928.774,2423.09 929.585,2420.71 930.213,2419.14C930.908,2417.41 931.847,2415.56 932.979,2416.27C934.111,2416.98 934.062,2419.08 933.105,2420.51C932.219,2421.83 929.467,2424.49 929.211,2423.97Z" style="fill:rgb(102,97,96);"/>
            </g>
            <g transform="matrix(1.08891,0,0,1.08891,-89.7284,-221.259)">
                <path d="M991.675,2461.95C992.629,2462.16 993.064,2463.27 992.873,2463.78C992.681,2464.3 992.211,2464.91 991.38,2464.54C990.549,2464.17 990.233,2463.37 990.369,2462.8C990.504,2462.24 991.301,2461.87 991.675,2461.95Z" style="fill:rgb(102,97,96);"/>
            </g>
            <path d="M970.479,2315.51L983.968,2307.83L1055.85,2336.19L1053.55,2337.7L1042.19,2343.98L1036.22,2341.66L970.479,2315.51Z" style="fill:rgb(191,191,191);stroke:rgb(102,97,96);stroke-width:1.27px;"/>
            <g transform="matrix(1,0,0,1,8.06848,-4.47584)">
                <path d="M1023.13,2390.69L1132.62,2328.29" style="fill:none;stroke:rgb(102,97,96);stroke-width:1.41px;"/>
            </g>
            <path d="M885.243,2322.57C885.243,2322.57 887.36,2322.76 888.348,2323.2C889.685,2323.81 1035.3,2380.79 1037.49,2381.87C1039.69,2382.95 1044.14,2385.45 1043.78,2392.14C1043.41,2398.82 1031.44,2574.14 1031.31,2577.22C1031.17,2580.3 1032.58,2580.85 1034,2580.18C1035.42,2579.51 1043.35,2575.48 1044.67,2574.85C1045.98,2574.22 1048.6,2574.17 1048.65,2577.32C1048.69,2580.55 1048.79,2610.83 1048.76,2611.83C1048.74,2612.83 1048.26,2614.51 1047.95,2615.08L1048.5,2615.15L1048.94,2614.46C1048.94,2614.46 1049.65,2613.04 1049.64,2611.79C1049.63,2610.54 1049.69,2577.72 1049.61,2576.71C1049.51,2575.5 1048.32,2571.75 1045.52,2573.17C1042.72,2574.59 1035.43,2578.17 1034.07,2578.82C1032.72,2579.47 1032.01,2578.84 1032.13,2577.09C1032.25,2575.33 1044.74,2392.35 1044.7,2390.97C1044.68,2390.12 1044.44,2383.8 1039.1,2381.7C1033.77,2379.6 890.635,2323.26 889.343,2322.85C888.05,2322.43 886.693,2322.05 886.196,2322.01C885.699,2321.97 885.243,2322.57 885.243,2322.57Z" style="fill:rgb(191,191,191);stroke:rgb(102,97,96);stroke-width:0.56px;"/>
        </g>
        <g transform="matrix(1,0,0,1,1792.52,81.625)">
            <path d="M1016.81,2708.42C1016.81,2708.42 1015.64,2719.84 1015.63,2720.83C1015.63,2721.81 1015.27,2723.35 1017.56,2724.28C1019.84,2725.2 1046.36,2735.83 1049.07,2736.69C1051.78,2737.54 1053.29,2737.26 1054.99,2736.18C1056.69,2735.11 1092.66,2711.69 1094.59,2710.42C1096.52,2709.15 1096.22,2708.62 1096.16,2707.21C1096.1,2705.8 1094.37,2689.94 1094.37,2689.94L1088.12,2691.9L1079.87,2698.25L1058.12,2716.03L1046.51,2719L1034.89,2711.8L1021.08,2709.45L1016.81,2708.42Z" style="fill:rgb(230,230,230);stroke:rgb(102,97,96);stroke-width:1.41px;"/>
            <path d="M1018.18,2706.37C1019.97,2704.81 1052.73,2678.7 1054.16,2677.39C1055.59,2676.08 1058.08,2674.62 1062.53,2676.45C1066.99,2678.28 1088.04,2686.57 1091.2,2687.85C1094.6,2689.22 1095.52,2689.86 1092.51,2692.42C1089.36,2695.1 1060.47,2717.94 1057.6,2720.48C1054.73,2723.02 1052.65,2723.66 1047.5,2721.75C1042.34,2719.84 1021.8,2711.78 1018.96,2710.59C1016.13,2709.4 1016.4,2707.93 1018.18,2706.37Z" style="fill:rgb(230,230,230);stroke:rgb(102,97,96);stroke-width:1.41px;"/>
            <path d="M1056.78,2678.91C1057.96,2679.32 1081.77,2688.6 1083,2689.26C1084.24,2689.92 1084.38,2690.93 1083.55,2691.77C1082.72,2692.61 1060.15,2710.95 1058.86,2711.79C1057.57,2712.62 1055.8,2713.4 1053.6,2712.62C1051.39,2711.84 1028.93,2703.03 1027.44,2702.37C1025.94,2701.7 1025.85,2700.42 1027.15,2699.33C1028.45,2698.24 1049.89,2680.95 1051.23,2679.96C1052.57,2678.97 1054.6,2678.15 1056.78,2678.91Z" style="fill:rgb(217,217,217);stroke:rgb(102,97,96);stroke-width:0.78px;"/>
            <path d="M1050.67,2684.61C1050.67,2684.61 1050.12,2685.04 1049.97,2685.15C1049.82,2685.26 1049.85,2686.06 1049.84,2686.6C1049.84,2686.6 1071.88,2695.3 1072.67,2695.64C1073.46,2695.98 1073.97,2695.76 1074.79,2695.19C1075.61,2694.62 1081.59,2689.72 1082.04,2689.32C1082.48,2688.92 1082.83,2688.87 1083.29,2688.78C1083.75,2688.7 1085,2688.39 1085,2688.39C1085,2688.39 1085.21,2687.37 1084.86,2687.15C1084.51,2686.94 1080.13,2687.01 1080.13,2687.01L1076.53,2688.41L1054.27,2685.64L1050.67,2684.61Z" style="fill:rgb(191,191,191);"/>
            <path d="M1062.19,2678.1C1063.97,2678.78 1081.22,2685.59 1083.11,2686.33C1085,2687.07 1085.52,2687.28 1084.12,2687.45C1082.71,2687.63 1081.89,2687.59 1080.52,2688.68C1079.15,2689.76 1075.46,2692.91 1074.47,2693.7C1073.48,2694.49 1074.02,2694.76 1072.06,2693.97C1070.11,2693.18 1052.45,2686.12 1050.98,2685.49C1050.24,2685.17 1050.45,2684.66 1050.75,2684.42C1051.27,2684 1056.13,2680.2 1056.78,2679.61C1057.43,2679.01 1057.88,2678.73 1058.49,2678.55C1059.09,2678.37 1060.42,2678.02 1060.83,2677.92C1061.24,2677.82 1061.67,2677.9 1062.19,2678.1Z" style="fill:rgb(132,132,132);"/>
            <path d="M1015.68,2720.62C1015.68,2720.62 1016.07,2721.2 1016.7,2721.49C1017.32,2721.78 1048.24,2733.97 1049.68,2734.43C1051.13,2734.9 1053.29,2734.78 1054.61,2734C1055.93,2733.22 1096.07,2707.08 1096.07,2707.08" style="fill:none;stroke:rgb(102,97,96);stroke-width:0.42px;"/>
            <path d="M1015.81,2719.88C1015.81,2719.88 1016.2,2720.51 1017.09,2720.87C1018.16,2721.3 1047.7,2733.12 1049.45,2733.6C1051.19,2734.07 1053.12,2734.12 1054.63,2733.24C1056.14,2732.37 1095.97,2706.41 1095.97,2706.41" style="fill:none;stroke:rgb(102,97,96);stroke-width:0.42px;"/>
            <path d="M1080.36,2682.38C1080.82,2681.24 1114.34,2640.43 1157.78,2625.06C1201.21,2609.68 1230,2602.6 1235.85,2582.78C1241.7,2562.97 1238.16,2537.82 1209.61,2535.63C1181.06,2533.44 1168.23,2521.66 1158.89,2521.67" style="fill:none;stroke:rgb(102,97,96);stroke-width:2.82px;stroke-linecap:square;"/>
            <path d="M1049.84,2722.78L1049.27,2733.3" style="fill:none;stroke:rgb(102,97,96);stroke-width:0.78px;stroke-linecap:square;"/>
            <g transform="matrix(1,0,0,1,5.38647,-0.356935)">
                <path d="M1049.84,2722.78L1049.27,2733.3" style="fill:none;stroke:rgb(102,97,96);stroke-width:0.78px;stroke-linecap:square;"/>
            </g>
            <g transform="matrix(1,0,0,1,4.75562,11.4361)">
                <path d="M1049.84,2722.78L1049.72,2725.04" style="fill:none;stroke:rgb(102,97,96);stroke-width:0.78px;stroke-linecap:square;"/>
            </g>
            <g transform="matrix(1,0,0,1,-0.614439,11.7406)">
                <path d="M1049.84,2722.78L1049.72,2725.03" style="fill:none;stroke:rgb(102,97,96);stroke-width:0.78px;stroke-linecap:square;"/>
            </g>
        </g>
    </g>
</svg>
