<?xml version="1.0" encoding="UTF-8" standalone="no"?>
<!DOCTYPE svg PUBLIC "-//W3C//DTD SVG 1.1//EN" "http://www.w3.org/Graphics/SVG/1.1/DTD/svg11.dtd">
<svg width="100%" height="100%" viewBox="0 0 400 315" version="1.1" xmlns="http://www.w3.org/2000/svg" xmlns:xlink="http://www.w3.org/1999/xlink" xml:space="preserve" xmlns:serif="http://www.serif.com/" style="fill-rule:evenodd;clip-rule:evenodd;stroke-linecap:round;stroke-linejoin:round;stroke-miterlimit:1.5;">
    <g transform="matrix(0.557739,0,0,0.543871,-175.89,-134.096)">
        <g>
            <g transform="matrix(1,0,0,1,248.234,-87.7632)">
                <path d="M333.917,485.352C333.917,485.352 338.685,481.198 342.145,479.459C343.375,478.841 348.649,475.978 353.746,477.428C358.422,478.759 470.076,523.136 473.697,524.672C480.656,527.624 502.898,539.024 502.913,564.017C502.928,589.01 502.996,880.207 502.671,887.435C502.346,894.663 500.451,900.474 494.417,903.895C488.384,907.316 484.933,909.281 484.894,909.242C484.854,909.203 484.629,898.756 484.629,898.756L488.607,862.185L485.751,562.703L463.864,550.8L350.854,495.289L333.917,485.352Z" style="fill:rgb(194,191,191);stroke:rgb(102,97,96);stroke-width:1.82px;"/>
            </g>
            <g transform="matrix(1,0,0,1,247.387,-87.7632)">
                <path d="M326.883,828.423L326.883,502.507C326.883,502.507 326.482,480.933 345.393,483.368C351.164,484.112 460.182,527.991 465.684,530.349C471.186,532.708 494.641,545.776 494.648,569.884C494.655,593.993 495.123,886.214 494.688,892.834C494.252,899.454 489.802,913.839 475.603,911.007C461.404,908.175 360.531,865.555 353.234,863.138C345.937,860.721 327.609,848.34 326.883,828.423Z" style="fill:rgb(233,228,227);stroke:rgb(102,97,96);stroke-width:1.82px;"/>
            </g>
            <g transform="matrix(1,0,0,1,248.234,-87.7632)">
                <path d="M335.539,811.601L335.539,524.726L483.299,582.906L483.299,870.218L335.539,811.601Z" style="fill:rgb(122,133,148);"/>
            </g>
            <g transform="matrix(0.690157,-0.409533,0.593456,1.00011,-141.542,79.402)">
                <ellipse cx="411.623" cy="865.22" rx="13.463" ry="13.94" style="fill:rgb(166,185,178);"/>
            </g>
            <g transform="matrix(0.44159,0,0,0.44159,374.634,351.463)">
                <g transform="matrix(1.24935,0,0,1.2055,-387.649,-439.151)">
                    <ellipse cx="788.387" cy="689.73" rx="51.462" ry="53.142" style="fill:rgb(144,155,176);"/>
                </g>
                <g transform="matrix(1,0,0,1,-181.51,-284.807)">
                    <path d="M820.869,628.741C858.06,636.843 884.089,655.491 884.089,677.175C884.089,698.885 857.995,717.552 820.718,725.645C825.645,721.44 829.922,716.504 833.333,710.974C852.369,703.107 864.497,691.223 864.497,677.933C864.497,664.97 852.957,653.344 834.698,645.514C831.084,639.154 826.404,633.473 820.869,628.741Z" style="fill:rgb(233,189,122);"/>
                </g>
                <g transform="matrix(1,0,0,1,-181.51,-284.807)">
                    <path d="M736.529,628.979C731.136,633.658 726.542,639.218 722.994,645.463C704.685,653.282 693.083,664.936 693.083,677.933C693.083,691.247 705.256,703.151 724.355,711.017C727.725,716.42 731.883,721.282 736.681,725.407C699.932,717.227 674.29,698.696 674.29,677.175C674.29,655.677 699.875,637.164 736.529,628.979Z" style="fill:rgb(233,189,122);"/>
                </g>
                <g transform="matrix(1,0,0,1,-181.51,-284.807)">
                    <path d="M833.333,710.974C829.9,716.489 825.645,721.443 820.718,725.645C807.999,728.432 793.948,729.97 779.19,729.97C764.056,729.97 749.666,728.353 736.681,725.407C731.866,721.256 727.682,716.403 724.355,711.017C739.147,717.114 758.119,720.78 778.79,720.78C799.511,720.78 818.524,717.096 833.333,710.974Z" style="fill:rgb(233,189,122);"/>
                </g>
            </g>
            <g transform="matrix(1,0,0,1,247.723,-87.1799)">
                <path d="M395.859,527.151L422.878,537.95" style="fill:none;stroke:rgb(166,185,178);stroke-width:5.45px;"/>
            </g>
            <g transform="matrix(0.781321,1.14609,-0.713136,0.486164,703.65,-257.579)">
                <ellipse cx="382.296" cy="522.053" rx="2.652" ry="3.05" style="fill:rgb(166,185,178);"/>
            </g>
            <g transform="matrix(0.593898,0.871168,-0.54207,0.369543,712.905,-92.8221)">
                <ellipse cx="382.296" cy="522.053" rx="2.652" ry="3.05" style="fill:rgb(166,185,178);"/>
            </g>
            <g transform="matrix(1,0,0,1,254.285,-92.5061)">
                <g transform="matrix(0.504733,0,0,0.506619,36.0936,417.835)">
                    <ellipse cx="788.387" cy="689.73" rx="51.462" ry="53.142" style="fill:rgb(184,191,205);"/>
                </g>
                <g transform="matrix(0.806767,0,0,0.391837,-201.912,496.917)">
                    <path d="M811.376,642.243C828.248,650.899 839.849,668.926 839.849,689.73C839.849,710.424 828.369,728.371 811.617,737.097C817.093,724.838 820.442,708.223 820.442,689.952C820.442,671.419 816.996,654.591 811.376,642.243Z" style="fill:rgb(98,108,122);"/>
                </g>
                <g transform="matrix(0.806767,0,0,0.391837,-201.912,496.917)">
                    <path d="M765.039,642.421C759.462,654.755 756.05,671.51 756.05,689.952C756.05,708.136 759.367,724.68 764.799,736.919C748.247,728.124 736.924,710.282 736.924,689.73C736.924,669.085 748.349,651.175 765.039,642.421Z" style="fill:rgb(98,108,122);"/>
                </g>
                <g transform="matrix(0.403997,0,0,0.420257,69.2538,306.156)">
                    <path d="M837.071,1095.2C837.071,1095.2 841.602,1127.12 899.267,1127.76C956.932,1128.4 970.189,1105.22 972.298,1088.49L963.84,1132.68L949.832,1140.52C949.832,1140.52 927.333,1147.86 900.44,1146.83C868.274,1145.6 852.38,1143.69 828.198,1125.93C804.016,1108.18 832.586,1107.78 832.586,1107.78L837.071,1095.2" style="fill:rgb(98,108,122);"/>
                </g>
            </g>
        </g>
        <g transform="matrix(0.694069,0,0,0.694069,164.973,43.6195)">
            <g>
                <g>
                    <g transform="matrix(1,0,0,1,-123.899,84.3024)">
                        <path d="M823.388,661.771L829.545,657.744L868.633,673.104L839.682,713.606L871.624,726.044L865.347,729.943L824.643,722.582L824.362,664.865L823.388,661.771Z" style="fill:rgb(214,150,55);"/>
                    </g>
                    <g transform="matrix(1,0,0,1,-123.899,84.3024)">
                        <path d="M789.751,798.274L795.724,794.331L871.265,726.174L860.241,724.978L795.559,790.132L789.751,798.274Z" style="fill:rgb(214,150,55);"/>
                    </g>
                    <g transform="matrix(1,0,0,1,-123.899,84.3024)">
                        <path d="M823.366,661.651L788.74,726.504L816.422,737.642L789.395,798.57L865.503,729.772L833.311,717.851L862.633,677.275L823.366,661.651Z" style="fill:rgb(233,189,122);"/>
                    </g>
                </g>
            </g>
        </g>
    </g>
    <g transform="matrix(0.557739,0,0,0.543871,-638.498,-714.558)">
        <g transform="matrix(1,0,0,1,762.361,466.168)">
            <path d="M388.588,1106.6C388.588,1106.6 394.487,1098.61 399.224,1099.26C403.961,1099.9 410.354,1096.02 428.374,1128.41C446.395,1160.8 430.79,1158.74 430.79,1158.74L409.762,1132L388.588,1106.6Z" style="fill:rgb(194,191,191);stroke:rgb(102,97,96);stroke-width:1.82px;"/>
        </g>
        <g transform="matrix(1,0,0,1,762.361,466.168)">
            <path d="M417.332,1052.76C417.332,1052.76 421.789,1043.97 430.293,1046.91C438.798,1049.85 452.601,1069.05 452.746,1097.81C452.746,1097.81 467.974,1097.23 477.235,1109.36C477.235,1109.36 486.662,1106.99 495.13,1113.22C503.599,1119.44 508.394,1129.29 509.431,1133.06C509.431,1133.06 526.417,1135.02 528.171,1149.52C529.925,1164.02 529.539,1184.98 525.617,1196.32C521.694,1207.67 513.086,1211.18 508.766,1213.35C508.766,1213.35 506.17,1217.37 506.119,1219.91C506.068,1222.46 506.464,1239.55 506.464,1239.55L500.94,1242.73L492.87,1222.09L496.757,1206.62L512.607,1154.26L459.705,1124.62L433.819,1096.35L432.728,1078.09L417.332,1052.76Z" style="fill:rgb(194,191,191);stroke:rgb(102,97,96);stroke-width:2.72px;"/>
        </g>
        <g transform="matrix(1,0,0,1,762.361,466.168)">
            <path d="M435.248,1217.88C435.248,1217.88 435.556,1203.87 429.489,1195.42C423.422,1186.97 406.978,1159.62 403.412,1150.86C399.847,1142.09 378.703,1112.61 389.73,1106.11C400.756,1099.62 412.669,1109.75 424.817,1138.37C424.817,1138.37 423.248,1115.12 420.366,1103.43C417.483,1091.74 402.252,1051.8 422.073,1051.22C441.895,1050.65 447.355,1086.2 447.398,1101.31C447.398,1101.31 463.897,1100.81 471.955,1114.1C471.955,1114.1 490.411,1104.42 504.375,1136.62C504.375,1136.62 520.011,1137.76 522.778,1152.4C525.545,1167.04 525.022,1193.39 517.056,1204.42C509.091,1215.46 500.167,1217.46 500.387,1222.65C500.608,1227.84 501.111,1242.67 501.111,1242.67L486.708,1236.84C486.708,1236.84 484.087,1222.97 478.192,1220.45C472.297,1217.92 471.503,1230.86 465.442,1230.37C459.381,1229.88 435.248,1217.88 435.248,1217.88Z" style="fill:rgb(233,228,227);stroke:rgb(102,97,96);stroke-width:2.72px;"/>
        </g>
        <g transform="matrix(1,0,0,1,762.845,466.166)">
            <path d="M446.926,1101.33L446.926,1127.58" style="fill:none;stroke:rgb(102,97,96);stroke-width:2.72px;"/>
        </g>
        <g transform="matrix(1,0,0,1,762.361,466.168)">
            <path d="M472.081,1114.11L472.081,1139.14" style="fill:none;stroke:rgb(102,97,96);stroke-width:2.72px;"/>
        </g>
        <g transform="matrix(1,0,0,1,763.715,467.63)">
            <path d="M502.656,1134.41L502.656,1151.32" style="fill:none;stroke:rgb(102,97,96);stroke-width:2.72px;"/>
        </g>
        <g transform="matrix(1,0,0,1,762.361,466.168)">
            <path d="M453.673,1156.66L453.673,1191.87" style="fill:none;stroke:rgb(102,97,96);stroke-width:2.72px;"/>
        </g>
        <g transform="matrix(1,0,0,1,762.361,466.168)">
            <path d="M472.193,1163.19L472.193,1199.45" style="fill:none;stroke:rgb(102,97,96);stroke-width:2.72px;"/>
        </g>
        <g transform="matrix(1,0,0,1,762.361,466.168)">
            <path d="M490.139,1171.17L490.139,1206.86" style="fill:none;stroke:rgb(102,97,96);stroke-width:2.72px;"/>
        </g>
    </g>
    <g transform="matrix(0.418764,0,0,0.408352,-242.915,-370.303)">
        <g transform="matrix(1,0,0,1,-55.9063,70.0486)">
            <path d="M776.496,845.295C776.496,845.295 780.749,842.49 783.306,841.122C786.4,839.468 791.265,839.082 795.171,840.444C799.077,841.806 938.204,897.623 941.65,899.124C946.321,901.159 960.242,912.691 960.256,927.088C960.269,941.485 960.624,1008.55 960.376,1013.92C960.127,1019.29 957.026,1025.08 948.981,1028.71L940.587,1018.58L911.333,920.917L856.167,894.858L780.536,857.233L776.496,845.295Z" style="fill:rgb(203,129,146);stroke:rgb(102,97,96);stroke-width:2.42px;"/>
        </g>
        <g transform="matrix(1,0,0,1,33.125,129.161)">
            <path d="M681.228,886.395L681.228,798.081C681.228,798.081 682.407,780.791 699.388,785.047C703.622,786.108 837.794,839.769 846.923,843.719C856.052,847.669 865.442,862.759 865.511,871.679C865.58,880.598 865.564,954.17 865.427,958.532C865.29,962.894 859.141,976.335 848.419,972.135C837.698,967.936 814.794,958.271 811.821,957.08C808.848,955.889 806.568,957.283 805.328,958.031C804.088,958.778 780.56,971.106 777.951,972.495C775.343,973.885 771.707,973.332 769.056,969.951C766.405,966.57 739.578,931.026 737.83,929.114C736.082,927.202 733.146,926.131 731.636,925.546C730.125,924.96 702.567,914.369 698.363,912.386C691.882,909.33 681.841,898.79 681.228,886.395Z" style="fill:rgb(228,145,164);stroke:rgb(102,97,96);stroke-width:2.42px;"/>
        </g>
        <g transform="matrix(1,0,0,1,-55.9063,70.0486)">
            <path d="M862.407,971.802C862.407,971.802 839.176,944.198 834.847,938.249C829.098,930.347 824.822,918.645 831.079,911.532C837.336,904.419 850.242,904.686 862.117,919.628C862.117,919.628 874.738,911.709 888.003,927.635C901.268,943.561 894.355,957.883 889.387,960.311C879.299,965.242 862.407,971.802 862.407,971.802Z" style="fill:rgb(233,228,227);stroke:rgb(102,97,96);stroke-width:2.42px;"/>
        </g>
    </g>
    <g transform="matrix(0.441276,0,0,0.430303,-68.3895,-297.032)">
        <g transform="matrix(1,0,0,1,-46.9844,-31.3594)">
            <path d="M795.702,748.958L803.729,743.425L956.716,803.559L956.716,970.904L949.25,975.711L918.3,845.73L858.657,810.953L795.702,748.958Z" style="fill:rgb(232,170,114);stroke:rgb(102,97,96);stroke-width:2.29px;"/>
        </g>
        <g transform="matrix(1,0,0,1,-46.9844,-31.3594)">
            <path d="M795.604,916.117L795.604,749.12L948.918,808.859L949.071,975.91L795.604,916.117Z" style="fill:rgb(233,189,122);stroke:rgb(102,97,96);stroke-width:2.29px;"/>
        </g>
        <g transform="matrix(1,0,0,1,-46.9844,-31.3594)">
            <path d="M816.604,883.717L927.14,927.087" style="fill:none;stroke:rgb(102,97,96);stroke-width:6.88px;"/>
        </g>
        <g transform="matrix(1,0,0,1,-46.9844,-65.4475)">
            <path d="M816.604,883.717L927.14,927.087" style="fill:none;stroke:rgb(102,97,96);stroke-width:6.88px;"/>
        </g>
        <g transform="matrix(1,0,0,1,-46.9844,-100.598)">
            <path d="M816.604,883.717L927.14,927.087" style="fill:none;stroke:rgb(102,97,96);stroke-width:6.88px;"/>
        </g>
        <g transform="matrix(1,0,0,1,-46.9844,-31.3594)">
            <path d="M948.964,808.626L956.316,803.713" style="fill:none;stroke:rgb(102,97,96);stroke-width:2.29px;"/>
        </g>
    </g>
    <g transform="matrix(0.557739,0,0,0.543871,-144.652,-181.248)">
        <path d="M866.209,759.015L872.962,754.624C872.962,754.624 882.325,749.31 891.719,759.168C901.114,769.026 902.062,782.794 896.196,787.943C894.945,789.041 887.318,793.163 887.318,793.163L881.937,769.461L866.209,759.015Z" style="fill:rgb(133,138,143);stroke:rgb(102,97,96);stroke-width:1.82px;"/>
        <g transform="matrix(0.734754,1.09954,-0.82754,0.552993,876.437,-623.785)">
            <ellipse cx="880.323" cy="781.03" rx="15.123" ry="13.755" style="fill:rgb(175,182,188);stroke:rgb(102,97,96);stroke-width:1.57px;"/>
        </g>
        <path d="M841.254,720.718L851.732,722.115L897.997,739.236L914.436,749.284L921.096,744.908C878.206,685.845 841.254,720.718 841.254,720.718L851.816,714.245" style="fill:rgb(133,138,143);stroke:rgb(102,97,96);stroke-width:1.82px;"/>
        <path d="M852.876,737.774L841.337,720.843C841.337,720.843 874.613,696.803 914.329,749.247L902.895,757.346C902.895,757.346 879.283,723.965 852.876,737.774Z" style="fill:rgb(175,182,188);stroke:rgb(102,97,96);stroke-width:1.82px;"/>
        <path d="M816.69,682.85L830.418,674.333C830.418,674.333 884.652,643.165 947.371,727.626L940.585,732.154L914.567,713.888L861.372,683.587L824.697,684.224L816.69,682.85Z" style="fill:rgb(133,138,143);stroke:rgb(102,97,96);stroke-width:1.82px;"/>
        <path d="M815.916,683.199L827.432,700.487C827.432,700.487 872.451,665.733 928.58,740.382L940.285,732.257C940.285,732.257 878.918,643.224 815.916,683.199Z" style="fill:rgb(175,182,188);stroke:rgb(102,97,96);stroke-width:1.82px;"/>
        <path d="M790.302,646.005C790.302,646.005 817.041,621.224 857.467,627.909C904.518,635.689 938.29,663.329 972.845,708.745L965.277,713.684L945.191,699.078L876.634,647.539L832.178,643.902L802.443,645.164L790.302,646.005Z" style="fill:rgb(133,138,143);stroke:rgb(102,97,96);stroke-width:1.82px;"/>
        <path d="M802.113,662.317C802.113,662.317 869.139,611.511 953.889,722L965.366,713.947C965.366,713.947 926.487,650.477 862.595,634.485C850.448,631.444 817.734,626.004 789.891,646.008L802.113,662.317Z" style="fill:rgb(175,182,188);stroke:rgb(102,97,96);stroke-width:1.82px;"/>
    </g>
</svg>
