<?xml version="1.0" encoding="UTF-8" standalone="no"?>
<!DOCTYPE svg PUBLIC "-//W3C//DTD SVG 1.1//EN" "http://www.w3.org/Graphics/SVG/1.1/DTD/svg11.dtd">
<svg width="100%" height="100%" viewBox="0 0 310 355" version="1.1" xmlns="http://www.w3.org/2000/svg" xmlns:xlink="http://www.w3.org/1999/xlink" xml:space="preserve" xmlns:serif="http://www.serif.com/" style="fill-rule:evenodd;clip-rule:evenodd;stroke-linecap:round;stroke-linejoin:round;stroke-miterlimit:1.5;">
    <g transform="matrix(0.482537,0,0,0.482537,-379.567,-347.418)">
        <path d="M801.088,737.517C801.088,737.517 815.007,723.086 832.669,729.716C850.33,736.345 1381.61,944.424 1395.89,950.708C1410.16,956.991 1423.26,976.146 1423.36,992.293C1423.47,1008.88 1423.36,1409.4 1423.36,1421.62C1423.36,1433.84 1412.33,1440.62 1407.77,1443.01C1403.2,1445.4 1359.31,1392.97 1359.31,1392.97L860.022,782.193L829.071,750.163L801.088,737.517Z" style="fill:rgb(194,191,191);stroke:rgb(102,97,96);stroke-width:2.07px;"/>
    </g>
    <g transform="matrix(0.482537,0,0,0.482537,-379.567,-347.418)">
        <path d="M823.758,1226.38C841.75,1234.11 1358.12,1435.94 1379.03,1444.3C1402.57,1453.72 1413.99,1441.99 1414.32,1427.44C1414.54,1417.66 1414.42,1013.29 1414.42,998.017C1414.42,982.747 1402.59,962.154 1387.2,956.45C1371.81,950.745 834.468,738.896 823.309,735.364C807.077,730.225 793.275,735.909 792.555,757.058C791.859,777.465 792.555,1166.31 792.555,1179.37C792.555,1192.44 802.359,1217.19 823.758,1226.38Z" style="fill:rgb(233,228,227);stroke:rgb(102,97,96);stroke-width:2.07px;"/>
    </g>
    <g transform="matrix(0.482537,0,0,0.482537,-379.567,-347.418)">
        <path d="M826.898,1202.58C838.719,1207.2 1369.21,1415.49 1381.2,1420.41C1386.41,1422.55 1390.64,1422.67 1390.96,1416.59C1391.3,1410.25 1391.21,1001.81 1391.13,994.813C1391.06,987.815 1390.7,983.113 1384.15,980.388C1377.59,977.663 830.815,763.079 824.024,760.321C817.234,757.562 814.162,761.974 814.191,764.803C814.219,767.632 813.931,1185.5 814.256,1190.14C814.582,1194.77 816.795,1198.62 826.898,1202.58Z" style="fill:rgb(219,218,218);stroke:rgb(102,97,96);stroke-width:2.07px;"/>
    </g>
    <g transform="matrix(0.482537,0,0,0.482537,-379.567,-347.418)">
        <path d="M1323.03,1189.89L1323.29,1163.03L1324.54,1163.38L1324.54,1161.41L1329.2,1163.42L1329.2,1165.23L1330.81,1165.93L1330.81,1189.59L1336.53,1192.01L1336.53,1146.22L1338.01,1146.7L1338.01,1144.81L1345.85,1147.96L1345.85,1149.63L1347.66,1150.27L1347.66,1195.68L1352.75,1198.04L1352.75,1170.77L1354.55,1171.22L1354.55,1169.6L1359.48,1171.49L1359.48,1173.37L1360.92,1174.01L1360.92,1201.24L1359.55,1200.62L1359.55,1202.03L1358.11,1201.46L1358.11,1203.92L1356.35,1202.86L1356.35,1204.98L1354.52,1204.07L1354.52,1206.19L1347.9,1203.35L1347.9,1232.46L1332.68,1226.28L1332.68,1224.89L1336.27,1226.34L1336.27,1201.01L1328.31,1197.43L1328.31,1195.83L1326.5,1195.11L1326.5,1193.42L1324.88,1192.43L1324.83,1190.74L1323.03,1189.89" style="fill:rgb(102,97,96);"/>
    </g>
    <g transform="matrix(0.482537,0,0,0.482537,-488.242,-390.454)">
        <path d="M1323.03,1189.89L1323.29,1163.03L1324.54,1163.38L1324.54,1161.41L1329.2,1163.42L1329.2,1165.23L1330.81,1165.93L1330.81,1189.59L1336.53,1192.01L1336.53,1146.22L1338.01,1146.7L1338.01,1144.81L1345.85,1147.96L1345.85,1149.63L1347.66,1150.27L1347.66,1195.68L1352.75,1198.04L1352.75,1170.77L1354.55,1171.22L1354.55,1169.6L1359.48,1171.49L1359.48,1173.37L1360.92,1174.01L1360.92,1201.24L1359.55,1200.62L1359.55,1202.03L1358.11,1201.46L1358.11,1203.92L1356.35,1202.86L1356.35,1204.98L1354.52,1204.07L1354.52,1206.19L1347.9,1203.35L1347.9,1232.46L1332.68,1226.28L1332.68,1224.89L1336.27,1226.34L1336.27,1201.01L1328.31,1197.43L1328.31,1195.83L1326.5,1195.11L1326.5,1193.42L1324.88,1192.43L1324.83,1190.74L1323.03,1189.89" style="fill:rgb(102,97,96);"/>
    </g>
    <g transform="matrix(0.482537,0,0,0.482537,-379.567,-347.418)">
        <path d="M877.99,1020.36L877.99,998.624L881.471,999.931L881.471,1007.39L884.597,1008.5L884.597,1012.49L887.891,1013.81L887.891,1017.44L894.809,1020.15L894.809,1016.12L897.868,1017.34L897.868,1013.45L902.727,1015.53L902.727,1011.51L907.908,1013.93L907.908,1010.27L911.5,1012.05L911.5,988.345L914.733,989.63L914.733,985.704L941.163,996.256L941.163,1000.1L944.383,1001.17L944.383,1017.92L927.904,1011.38L927.904,1015.19L938.048,1019.16L938.048,1022.74L924.564,1017.15L924.564,1024.27L931.519,1026.9L931.519,1034.33L928.009,1032.97L928.009,1029.33L924.573,1028.01L924.573,1041L921.422,1039.74L921.422,1044.73L918.071,1043.41L918.071,1047.39L914.63,1046.01L914.63,1049.79L919.566,1051.71L919.566,1055.27L911.659,1052.2L911.659,1048.17L904.685,1045.31L904.685,1049.32L901.339,1047.86L901.339,1051.68L897.938,1050.16L897.938,1053.98L901.399,1055.42L901.399,1059.15L894.89,1056.34L894.89,1041.88L891.721,1040.49L891.721,1036.9L888.593,1035.49L888.593,1031.67L885.167,1030.14L885.167,1026.85L882.028,1025.44L882.028,1022.18L877.99,1020.36" style="fill:rgb(102,97,96);"/>
    </g>
    <g transform="matrix(0.482537,0,0,0.482537,-379.558,-347.428)">
        <path d="M837.428,1021.74L887.471,1041.47" style="fill:none;stroke:rgb(102,97,96);stroke-width:4.14px;stroke-linecap:butt;"/>
    </g>
    <g transform="matrix(4.48337,0,0,4.48337,-3687.05,-4418.28)">
        <path d="M837.428,1021.74L887.471,1041.47" style="fill:none;stroke:rgb(102,97,96);stroke-width:0.45px;stroke-linecap:butt;"/>
    </g>
    <g transform="matrix(0.068219,0,0,0.068219,-34.1533,76.2333)">
        <path d="M837.428,1021.74L887.471,1041.47" style="fill:none;stroke:rgb(102,97,96);stroke-width:29.32px;stroke-linecap:butt;"/>
    </g>
    <g transform="matrix(0.0494541,0,0,0.0494541,-19.1871,96.0866)">
        <path d="M837.428,1021.74L887.471,1041.47" style="fill:none;stroke:rgb(102,97,96);stroke-width:40.44px;stroke-linecap:butt;"/>
    </g>
    <g transform="matrix(0.0358763,0,0,0.0358763,1.02729,115.249)">
        <path d="M837.428,1021.74L887.471,1041.47" style="fill:none;stroke:rgb(102,97,96);stroke-width:55.75px;stroke-linecap:butt;"/>
    </g>
    <g transform="matrix(0.0285389,0,0,0.0285389,3.65124,123.073)">
        <path d="M837.428,1021.74L887.471,1041.47" style="fill:none;stroke:rgb(102,97,96);stroke-width:70.08px;stroke-linecap:butt;"/>
    </g>
    <g transform="matrix(0.0521156,0,0,0.0521156,-7.80292,102.276)">
        <path d="M837.428,1021.74L887.471,1041.47" style="fill:none;stroke:rgb(102,97,96);stroke-width:38.38px;stroke-linecap:butt;"/>
    </g>
    <g transform="matrix(0.024123,0,0,0.024123,37.4003,137.576)">
        <path d="M837.428,1021.74L887.471,1041.47" style="fill:none;stroke:rgb(102,97,96);stroke-width:82.91px;stroke-linecap:butt;"/>
    </g>
    <g transform="matrix(0.024123,0,0,0.024123,50.2962,143.666)">
        <path d="M837.428,1021.74L887.471,1041.47" style="fill:none;stroke:rgb(102,97,96);stroke-width:82.91px;stroke-linecap:butt;"/>
    </g>
    <g transform="matrix(0.024123,0,0,0.024123,62.1338,147.555)">
        <path d="M837.428,1021.74L887.471,1041.47" style="fill:none;stroke:rgb(102,97,96);stroke-width:82.91px;stroke-linecap:butt;"/>
    </g>
    <g transform="matrix(0.024123,0,0,0.024123,75.1596,154.391)">
        <path d="M837.428,1021.74L887.471,1041.47" style="fill:none;stroke:rgb(102,97,96);stroke-width:82.91px;stroke-linecap:butt;"/>
    </g>
    <g transform="matrix(0.0346979,0,0,0.0346979,69.6208,144.702)">
        <path d="M837.428,1021.74L887.471,1041.47" style="fill:none;stroke:rgb(102,97,96);stroke-width:57.64px;stroke-linecap:butt;"/>
    </g>
    <g transform="matrix(0.0574381,0,0,0.0574381,63.2191,126.514)">
        <path d="M837.428,1021.74L887.471,1041.47" style="fill:none;stroke:rgb(102,97,96);stroke-width:34.82px;stroke-linecap:butt;"/>
    </g>
    <g transform="matrix(0.0288406,0,0,0.0288406,101.03,160.25)">
        <path d="M837.428,1021.74L887.471,1041.47" style="fill:none;stroke:rgb(102,97,96);stroke-width:69.35px;stroke-linecap:butt;"/>
    </g>
    <g transform="matrix(0.0288406,0,0,0.0288406,118.795,166.314)">
        <path d="M837.428,1021.74L887.471,1041.47" style="fill:none;stroke:rgb(102,97,96);stroke-width:69.35px;stroke-linecap:butt;"/>
    </g>
    <g transform="matrix(0.050424,0,0,0.050424,111.863,151.261)">
        <path d="M837.428,1021.74L887.471,1041.47" style="fill:none;stroke:rgb(102,97,96);stroke-width:39.66px;stroke-linecap:butt;"/>
    </g>
    <g transform="matrix(0.0649111,0,0,0.0649111,114.352,138.7)">
        <path d="M837.428,1021.74L887.471,1041.47" style="fill:none;stroke:rgb(102,97,96);stroke-width:30.81px;stroke-linecap:butt;"/>
    </g>
    <g transform="matrix(0.0261166,0,0,0.0261166,153.912,181.951)">
        <path d="M837.428,1021.74L887.471,1041.47" style="fill:none;stroke:rgb(102,97,96);stroke-width:76.58px;stroke-linecap:butt;"/>
    </g>
    <g transform="matrix(0.0552904,0,0,0.0552904,144.793,158.206)">
        <path d="M837.428,1021.74L887.471,1041.47" style="fill:none;stroke:rgb(102,97,96);stroke-width:36.17px;stroke-linecap:butt;"/>
    </g>
    <g transform="matrix(0.039837,0,0,0.039837,181.002,184.005)">
        <path d="M837.428,1021.74L887.471,1041.47" style="fill:none;stroke:rgb(102,97,96);stroke-width:50.2px;stroke-linecap:butt;"/>
    </g>
    <g transform="matrix(0.0713806,0,0,0.0713806,159.466,155.318)">
        <path d="M837.428,1021.74L887.471,1041.47" style="fill:none;stroke:rgb(102,97,96);stroke-width:28.02px;stroke-linecap:butt;"/>
    </g>
    <g transform="matrix(0.0273316,0,0,0.0273316,205.838,204.162)">
        <path d="M837.428,1021.74L887.471,1041.47" style="fill:none;stroke:rgb(102,97,96);stroke-width:73.18px;stroke-linecap:butt;"/>
    </g>
    <g transform="matrix(0.0592016,0,0,0.0592016,187.206,172.079)">
        <path d="M837.428,1021.74L887.471,1041.47" style="fill:none;stroke:rgb(102,97,96);stroke-width:33.78px;stroke-linecap:butt;"/>
    </g>
    <g transform="matrix(0.0592016,0,0,0.0592016,208.005,182.072)">
        <path d="M837.428,1021.74L887.471,1041.47" style="fill:none;stroke:rgb(102,97,96);stroke-width:33.78px;stroke-linecap:butt;"/>
    </g>
    <g transform="matrix(0.0578184,0,0,0.0578184,18.0285,105.94)">
        <path d="M837.428,1021.74L887.471,1041.47" style="fill:none;stroke:rgb(102,97,96);stroke-width:34.59px;stroke-linecap:butt;"/>
    </g>
    <g transform="matrix(0.482537,0,0,0.482537,-379.567,-347.418)">
        <path d="M917.879,992.57L917.879,996.497L921.352,997.793L921.352,993.928L917.879,992.57Z" style="fill:rgb(219,218,218);"/>
    </g>
    <g transform="matrix(0.482537,0,0,0.482537,-379.567,-347.418)">
        <path d="M876.944,881.012L878.464,884.208L937.143,907.263L937.143,904.733L935.386,903.542L935.386,901.175L932.061,899.813L932.061,895.772L927.27,894.226L927.27,890.815L918.819,887.374L918.819,885.268L914.175,883.485L914.175,880.003L912.404,879.114L912.404,876.66L908.965,875.079L908.965,872.882L904.117,871.313L904.117,873.61L895.708,869.856L895.708,872.059L893.872,870.841L893.872,872.947L890.58,870.859L890.58,877.056L885.402,874.86L885.402,877.058L884.068,876.259L884.068,878.144L872.342,873.401L872.342,875.81L870.293,874.73L870.293,879.166L863.941,876.698" style="fill:none;stroke:rgb(145,140,139);stroke-width:3.11px;stroke-linecap:square;"/>
    </g>
</svg>
