<?xml version="1.0" encoding="UTF-8" standalone="no"?>
<!DOCTYPE svg PUBLIC "-//W3C//DTD SVG 1.1//EN" "http://www.w3.org/Graphics/SVG/1.1/DTD/svg11.dtd">
<svg width="100%" height="100%" viewBox="0 0 370 420" version="1.1" xmlns="http://www.w3.org/2000/svg" xmlns:xlink="http://www.w3.org/1999/xlink" xml:space="preserve" xmlns:serif="http://www.serif.com/" style="fill-rule:evenodd;clip-rule:evenodd;stroke-linecap:round;stroke-linejoin:round;stroke-miterlimit:1.5;">
    <g transform="matrix(0.577596,0,0,0.577596,-454.877,-418.326)">
        <path d="M801.088,737.517C801.088,737.517 815.007,723.086 832.669,729.716C850.33,736.345 1381.61,944.424 1395.89,950.708C1410.16,956.991 1423.26,976.146 1423.36,992.293C1423.47,1008.88 1423.36,1409.4 1423.36,1421.62C1423.36,1433.84 1412.33,1440.62 1407.77,1443.01C1403.2,1445.4 1359.31,1392.97 1359.31,1392.97L860.022,782.193L829.071,750.163L801.088,737.517Z" style="fill:rgb(194,191,191);stroke:rgb(102,97,96);stroke-width:1.73px;"/>
    </g>
    <g transform="matrix(0.577596,0,0,0.577596,-454.877,-418.326)">
        <path d="M823.758,1226.38C841.75,1234.11 1358.12,1435.94 1379.03,1444.3C1402.57,1453.72 1413.99,1441.99 1414.32,1427.44C1414.54,1417.66 1414.42,1013.29 1414.42,998.017C1414.42,982.747 1402.59,962.154 1387.2,956.45C1371.81,950.745 834.468,738.896 823.309,735.364C807.077,730.225 793.275,735.909 792.555,757.058C791.859,777.465 792.555,1166.31 792.555,1179.37C792.555,1192.44 802.359,1217.19 823.758,1226.38Z" style="fill:rgb(233,228,227);stroke:rgb(102,97,96);stroke-width:1.73px;"/>
    </g>
    <g transform="matrix(0.577596,0,0,0.577596,-454.877,-418.326)">
        <path d="M826.898,1202.58C838.719,1207.2 1369.21,1415.49 1381.2,1420.41C1386.41,1422.55 1390.64,1422.67 1390.96,1416.59C1391.3,1410.25 1391.21,1001.81 1391.13,994.813C1391.06,987.815 1390.7,983.113 1384.15,980.388C1377.59,977.663 830.815,763.079 824.024,760.321C817.234,757.562 814.162,761.974 814.191,764.803C814.219,767.632 813.931,1185.5 814.256,1190.14C814.582,1194.77 816.795,1198.62 826.898,1202.58Z" style="fill:rgb(219,218,218);stroke:rgb(102,97,96);stroke-width:1.73px;"/>
    </g>
    <g transform="matrix(0.577596,0,0,0.577596,-454.877,-418.326)">
        <path d="M1323.03,1189.89L1323.29,1163.03L1324.54,1163.38L1324.54,1161.41L1329.2,1163.42L1329.2,1165.23L1330.81,1165.93L1330.81,1189.59L1336.53,1192.01L1336.53,1146.22L1338.01,1146.7L1338.01,1144.81L1345.85,1147.96L1345.85,1149.63L1347.66,1150.27L1347.66,1195.68L1352.75,1198.04L1352.75,1170.77L1354.55,1171.22L1354.55,1169.6L1359.48,1171.49L1359.48,1173.37L1360.92,1174.01L1360.92,1201.24L1359.55,1200.62L1359.55,1202.03L1358.11,1201.46L1358.11,1203.92L1356.35,1202.86L1356.35,1204.98L1354.52,1204.07L1354.52,1206.19L1347.9,1203.35L1347.9,1232.46L1332.68,1226.28L1332.68,1224.89L1336.27,1226.34L1336.27,1201.01L1328.31,1197.43L1328.31,1195.83L1326.5,1195.11L1326.5,1193.42L1324.88,1192.43L1324.83,1190.74L1323.03,1189.89" style="fill:rgb(102,97,96);"/>
    </g>
    <g transform="matrix(0.577596,0,0,0.577596,-584.96,-469.841)">
        <path d="M1323.03,1189.89L1323.29,1163.03L1324.54,1163.38L1324.54,1161.41L1329.2,1163.42L1329.2,1165.23L1330.81,1165.93L1330.81,1189.59L1336.53,1192.01L1336.53,1146.22L1338.01,1146.7L1338.01,1144.81L1345.85,1147.96L1345.85,1149.63L1347.66,1150.27L1347.66,1195.68L1352.75,1198.04L1352.75,1170.77L1354.55,1171.22L1354.55,1169.6L1359.48,1171.49L1359.48,1173.37L1360.92,1174.01L1360.92,1201.24L1359.55,1200.62L1359.55,1202.03L1358.11,1201.46L1358.11,1203.92L1356.35,1202.86L1356.35,1204.98L1354.52,1204.07L1354.52,1206.19L1347.9,1203.35L1347.9,1232.46L1332.68,1226.28L1332.68,1224.89L1336.27,1226.34L1336.27,1201.01L1328.31,1197.43L1328.31,1195.83L1326.5,1195.11L1326.5,1193.42L1324.88,1192.43L1324.83,1190.74L1323.03,1189.89" style="fill:rgb(102,97,96);"/>
    </g>
    <g transform="matrix(0.577596,0,0,0.577596,-454.877,-418.326)">
        <path d="M877.99,1020.36L877.99,998.624L881.471,999.931L881.471,1007.39L884.597,1008.5L884.597,1012.49L887.891,1013.81L887.891,1017.44L894.809,1020.15L894.809,1016.12L897.868,1017.34L897.868,1013.45L902.727,1015.53L902.727,1011.51L907.908,1013.93L907.908,1010.27L911.5,1012.05L911.5,988.345L914.733,989.63L914.733,985.704L941.163,996.256L941.163,1000.1L944.383,1001.17L944.383,1017.92L927.904,1011.38L927.904,1015.19L938.048,1019.16L938.048,1022.74L924.564,1017.15L924.564,1024.27L931.519,1026.9L931.519,1034.33L928.009,1032.97L928.009,1029.33L924.573,1028.01L924.573,1041L921.422,1039.74L921.422,1044.73L918.071,1043.41L918.071,1047.39L914.63,1046.01L914.63,1049.79L919.566,1051.71L919.566,1055.27L911.659,1052.2L911.659,1048.17L904.685,1045.31L904.685,1049.32L901.339,1047.86L901.339,1051.68L897.938,1050.16L897.938,1053.98L901.399,1055.42L901.399,1059.15L894.89,1056.34L894.89,1041.88L891.721,1040.49L891.721,1036.9L888.593,1035.49L888.593,1031.67L885.167,1030.14L885.167,1026.85L882.028,1025.44L882.028,1022.18L877.99,1020.36" style="fill:rgb(102,97,96);"/>
    </g>
    <g transform="matrix(0.577596,0,0,0.577596,-454.865,-418.338)">
        <path d="M837.428,1021.74L887.471,1041.47" style="fill:none;stroke:rgb(102,97,96);stroke-width:3.46px;stroke-linecap:butt;"/>
    </g>
    <g transform="matrix(5.36659,0,0,5.36659,-4413.93,-5291.14)">
        <path d="M837.428,1021.74L887.471,1041.47" style="fill:none;stroke:rgb(102,97,96);stroke-width:0.37px;stroke-linecap:butt;"/>
    </g>
    <g transform="matrix(0.0816581,0,0,0.0816581,-41.4162,88.7839)">
        <path d="M837.428,1021.74L887.471,1041.47" style="fill:none;stroke:rgb(102,97,96);stroke-width:24.49px;stroke-linecap:butt;"/>
    </g>
    <g transform="matrix(0.0591965,0,0,0.0591965,-23.5017,112.548)">
        <path d="M837.428,1021.74L887.471,1041.47" style="fill:none;stroke:rgb(102,97,96);stroke-width:33.79px;stroke-linecap:butt;"/>
    </g>
    <g transform="matrix(0.0429439,0,0,0.0429439,0.694846,135.485)">
        <path d="M837.428,1021.74L887.471,1041.47" style="fill:none;stroke:rgb(102,97,96);stroke-width:46.57px;stroke-linecap:butt;"/>
    </g>
    <g transform="matrix(0.0341611,0,0,0.0341611,3.8357,144.851)">
        <path d="M837.428,1021.74L887.471,1041.47" style="fill:none;stroke:rgb(102,97,96);stroke-width:58.55px;stroke-linecap:butt;"/>
    </g>
    <g transform="matrix(0.0623823,0,0,0.0623823,-9.87491,119.957)">
        <path d="M837.428,1021.74L887.471,1041.47" style="fill:none;stroke:rgb(102,97,96);stroke-width:32.06px;stroke-linecap:butt;"/>
    </g>
    <g transform="matrix(0.0288752,0,0,0.0288752,44.2333,162.211)">
        <path d="M837.428,1021.74L887.471,1041.47" style="fill:none;stroke:rgb(102,97,96);stroke-width:69.26px;stroke-linecap:butt;"/>
    </g>
    <g transform="matrix(0.0288752,0,0,0.0288752,59.6697,169.5)">
        <path d="M837.428,1021.74L887.471,1041.47" style="fill:none;stroke:rgb(102,97,96);stroke-width:69.26px;stroke-linecap:butt;"/>
    </g>
    <g transform="matrix(0.0288752,0,0,0.0288752,73.8393,174.156)">
        <path d="M837.428,1021.74L887.471,1041.47" style="fill:none;stroke:rgb(102,97,96);stroke-width:69.26px;stroke-linecap:butt;"/>
    </g>
    <g transform="matrix(0.0288752,0,0,0.0288752,89.4311,182.339)">
        <path d="M837.428,1021.74L887.471,1041.47" style="fill:none;stroke:rgb(102,97,96);stroke-width:69.26px;stroke-linecap:butt;"/>
    </g>
    <g transform="matrix(0.0415333,0,0,0.0415333,82.8012,170.741)">
        <path d="M837.428,1021.74L887.471,1041.47" style="fill:none;stroke:rgb(102,97,96);stroke-width:48.15px;stroke-linecap:butt;"/>
    </g>
    <g transform="matrix(0.0687533,0,0,0.0687533,75.1383,148.969)">
        <path d="M837.428,1021.74L887.471,1041.47" style="fill:none;stroke:rgb(102,97,96);stroke-width:29.09px;stroke-linecap:butt;"/>
    </g>
    <g transform="matrix(0.0345222,0,0,0.0345222,120.398,189.351)">
        <path d="M837.428,1021.74L887.471,1041.47" style="fill:none;stroke:rgb(102,97,96);stroke-width:57.93px;stroke-linecap:butt;"/>
    </g>
    <g transform="matrix(0.0345222,0,0,0.0345222,141.662,196.611)">
        <path d="M837.428,1021.74L887.471,1041.47" style="fill:none;stroke:rgb(102,97,96);stroke-width:57.93px;stroke-linecap:butt;"/>
    </g>
    <g transform="matrix(0.0603575,0,0,0.0603575,133.365,178.591)">
        <path d="M837.428,1021.74L887.471,1041.47" style="fill:none;stroke:rgb(102,97,96);stroke-width:33.14px;stroke-linecap:butt;"/>
    </g>
    <g transform="matrix(0.0776985,0,0,0.0776985,136.344,163.556)">
        <path d="M837.428,1021.74L887.471,1041.47" style="fill:none;stroke:rgb(102,97,96);stroke-width:25.74px;stroke-linecap:butt;"/>
    </g>
    <g transform="matrix(0.0312615,0,0,0.0312615,183.698,215.327)">
        <path d="M837.428,1021.74L887.471,1041.47" style="fill:none;stroke:rgb(102,97,96);stroke-width:63.98px;stroke-linecap:butt;"/>
    </g>
    <g transform="matrix(0.0661826,0,0,0.0661826,172.782,186.905)">
        <path d="M837.428,1021.74L887.471,1041.47" style="fill:none;stroke:rgb(102,97,96);stroke-width:30.22px;stroke-linecap:butt;"/>
    </g>
    <g transform="matrix(0.0476848,0,0,0.0476848,216.124,217.787)">
        <path d="M837.428,1021.74L887.471,1041.47" style="fill:none;stroke:rgb(102,97,96);stroke-width:41.94px;stroke-linecap:butt;"/>
    </g>
    <g transform="matrix(0.0854424,0,0,0.0854424,190.345,183.449)">
        <path d="M837.428,1021.74L887.471,1041.47" style="fill:none;stroke:rgb(102,97,96);stroke-width:23.41px;stroke-linecap:butt;"/>
    </g>
    <g transform="matrix(0.0327159,0,0,0.0327159,245.854,241.915)">
        <path d="M837.428,1021.74L887.471,1041.47" style="fill:none;stroke:rgb(102,97,96);stroke-width:61.13px;stroke-linecap:butt;"/>
    </g>
    <g transform="matrix(0.0708642,0,0,0.0708642,223.551,203.511)">
        <path d="M837.428,1021.74L887.471,1041.47" style="fill:none;stroke:rgb(102,97,96);stroke-width:28.22px;stroke-linecap:butt;"/>
    </g>
    <g transform="matrix(0.0708642,0,0,0.0708642,248.447,215.473)">
        <path d="M837.428,1021.74L887.471,1041.47" style="fill:none;stroke:rgb(102,97,96);stroke-width:28.22px;stroke-linecap:butt;"/>
    </g>
    <g transform="matrix(0.0692085,0,0,0.0692085,21.0453,124.343)">
        <path d="M837.428,1021.74L887.471,1041.47" style="fill:none;stroke:rgb(102,97,96);stroke-width:28.9px;stroke-linecap:butt;"/>
    </g>
    <g transform="matrix(0.577596,0,0,0.577596,-454.877,-418.326)">
        <path d="M917.879,992.57L917.879,996.497L921.352,997.793L921.352,993.928L917.879,992.57Z" style="fill:rgb(219,218,218);"/>
    </g>
    <g transform="matrix(0.577596,0,0,0.577596,-454.877,-418.326)">
        <path d="M876.944,881.012L878.464,884.208L937.143,907.263L937.143,904.733L935.386,903.542L935.386,901.175L932.061,899.813L932.061,895.772L927.27,894.226L927.27,890.815L918.819,887.374L918.819,885.268L914.175,883.485L914.175,880.003L912.404,879.114L912.404,876.66L908.965,875.079L908.965,872.882L904.117,871.313L904.117,873.61L895.708,869.856L895.708,872.059L893.872,870.841L893.872,872.947L890.58,870.859L890.58,877.056L885.402,874.86L885.402,877.058L884.068,876.259L884.068,878.144L872.342,873.401L872.342,875.81L870.293,874.73L870.293,879.166L863.941,876.698" style="fill:none;stroke:rgb(145,140,139);stroke-width:2.6px;stroke-linecap:square;"/>
    </g>
</svg>
